<?xml version="1.0" encoding="UTF-8"?>
<svg id="Layer_2" xmlns="http://www.w3.org/2000/svg" viewBox="0 0 1058.4 1969.73">
  <defs>
    <style>
      .cls-1 {
        fill: #f1c52a;
        fill-rule: evenodd;
      }
    </style>
  </defs>
  <g id="Layer_1-2" data-name="Layer_1">
    <path class="cls-1" d="M181.38,936.89c.25-.02.56-.06.8-.11.18-.04.28-.07.46-.11.14-.04.31-.11.31-.11.11-.04-.03,0-.14.06-.28.11-.73.36-1.25.61-.98.55-2.1,1.22-3.21,1.94-2.24,1.43-4.57,3.05-6.88,4.7-4.64,3.33-9.21,6.89-13.74,10.55-9.07,7.32-17.94,15.04-26.55,22.99-17.24,15.95-33.6,32.89-48.64,50.83-15,17.95-28.78,36.93-39.87,57.19-2.76,5.06-5.34,10.2-7.72,15.41-2.33,5.21-4.43,10.52-6.34,15.96-3.81,10.86-6.84,21.99-8.94,33.31-4.18,22.59-4.88,45.96-1.04,68.45,1.92,11.23,5.06,22.23,9.59,32.51,4.54,10.23,10.54,19.77,18.25,27.44,7.67,7.65,17.06,13.26,27.42,15.6,10.68,2.47,21.84,2.56,32.59.09,10.74-2.4,21.03-7.21,30.38-13.54,4.71-3.17,9.18-6.69,13.37-10.55,2.09-1.91,4.15-3.92,6.1-5.97.98-1.03,1.92-2.07,2.83-3.13l1.36-1.6c.45-.51.94-1.11,1.22-1.51l9.42,6.91c-.56.79-1.01,1.36-1.54,2.01l-1.53,1.85c-1.01,1.21-2.06,2.39-3.11,3.54-2.09,2.31-4.29,4.54-6.59,6.7-4.54,4.3-9.38,8.29-14.51,11.9-10.3,7.21-21.91,12.96-34.44,16.01-12.52,3.1-25.85,3.27-38.48.56-6.49-1.37-12.84-3.72-18.63-6.95-5.83-3.19-11.1-7.23-15.8-11.73-9.42-9.07-16.51-20.01-21.85-31.48-5.33-11.51-9-23.62-11.3-35.87-4.64-24.56-4.29-49.74-.24-74.15,2.06-12.22,5.09-24.27,9-36.02,1.95-5.86,4.11-11.72,6.56-17.45,2.47-5.72,5.16-11.32,7.99-16.8,11.47-21.91,25.53-42.06,40.82-61.02,15.31-18.97,31.85-36.78,49.4-53.63,8.75-8.42,17.76-16.59,27.14-24.46,4.71-3.94,9.46-7.79,14.48-11.54,2.51-1.88,5.06-3.73,7.81-5.55,1.36-.92,2.8-1.82,4.4-2.75.84-.47,1.67-.94,2.76-1.44.55-.27,1.11-.51,1.92-.81.34-.14.87-.31,1.39-.45.31-.08.63-.17.98-.23.42-.1.91-.17,1.36-.22l2.23,22.08"/>
    <path class="cls-1" d="M538.39,411.55c1.29.06,1.29-1.96,0-2.03-5.88-.25-11.68-.07-17.52.56-1.28.13-1.28,2.16,0,2.02,5.84-.63,11.64-.81,17.52-.55ZM531.5,418.17c-.72-1.08-2.45-.06-1.73,1.03.65.97,1.29,1.94,1.94,2.91.72,1.09,2.45.07,1.73-1.01-.65-.99-1.29-1.96-1.94-2.93ZM525.95,414.62c1.29-.21.76-2.16-.53-1.95-1.93.31-3.9.63-5.83.95-1.29.21-.73,2.16.52,1.96,1.97-.32,3.91-.64,5.84-.96ZM532.51,432.37c1.33,0,1.33-2.03,0-2.03s-1.29,2.03,0,2.03ZM516.97,447.85c-1.29,0-1.29,2.02,0,2.02h2.94c1.29,0,1.29-2.02,0-2.02h-2.94ZM564.64,448.9c1.29,0,1.29-2.02,0-2.02s-1.33,2.02,0,2.02ZM582.11,468.35c1.33,0,1.33-2.03,0-2.03s-1.28,2.03,0,2.03ZM569.47,476.14c1.33,0,1.33-2.03,0-2.03s-1.29,2.03,0,2.03ZM558.8,471.27c1.29,0,1.29-2.03,0-2.03s-1.33,2.03,0,2.03ZM594.31,451.59c.49.25,1.09.13,1.37-.36.29-.46.12-1.14-.36-1.39-.64-.33-1.29-.65-1.93-.98-.48-.24-1.09-.13-1.37.36-.28.45-.16,1.14.36,1.39.65.33,1.29.65,1.93.98ZM607.4,455.71c1.33,0,1.33-2.03,0-2.03h-2.9c-1.29,0-1.29,2.03,0,2.03h2.9ZM604.5,466.41c1.29,0,1.29-2.03,0-2.03s-1.29,2.03,0,2.03ZM562.67,444.04c1.33,0,1.33-2.03,0-2.03s-1.29,2.03,0,2.03ZM537.38,427.51c1.33,0,1.33-2.03,0-2.03s-1.29,2.03,0,2.03ZM540.32,432.37c1.29,0,1.29-2.03,0-2.03s-1.29,2.03,0,2.03ZM551.03,431.4c1.29,0,1.29-2.03,0-2.03s-1.33,2.03,0,2.03ZM554.9,424.58c1.33,0,1.33-2.02,0-2.02s-1.29,2.02,0,2.02ZM545.19,438.2c1.29,0,1.29-2.02,0-2.02s-1.33,2.02,0,2.02ZM605.47,426.57c2.61,0,2.61-4.04,0-4.04s-2.62,4.04,0,4.04ZM609.37,443.1c2.62,0,2.62-4.04,0-4.04s-2.61,4.04,0,4.04ZM466.88,415.88c2.62,0,2.62-4.06,0-4.06s-2.62,4.06,0,4.06ZM496.07,424.62c2.62,0,2.62-4.05,0-4.05s-2.61,4.05,0,4.05ZM539.84,365.83c3.9,0,3.9-6.08,0-6.08s-3.91,6.08,0,6.08ZM585.05,360c3.91,0,3.91-6.08,0-6.08s-3.9,6.08,0,6.08ZM568.99,376.04c3.95,0,3.91-6.08,0-6.08s-3.91,6.08,0,6.08ZM534,416.89c3.91,0,3.91-6.08,0-6.08s-3.91,6.08,0,6.08ZM520.87,405.21c3.91,0,3.91-6.07,0-6.07s-3.9,6.07,0,6.07ZM498.97,397.92c3.91,0,3.91-6.07,0-6.07s-3.9,6.07,0,6.07ZM515.04,415.43c.8,0,1.53-.35,2.13-.9.6-.54.85-1.35.89-2.14.04-.76-.37-1.62-.89-2.15-.56-.55-1.37-.89-2.13-.89h-1.45c-.85,0-1.57.34-2.18.89-.6.55-.84,1.36-.88,2.15-.04.76.36,1.62.88,2.14.57.56,1.37.9,2.18.9h1.45ZM557.31,443.14c3.95,0,3.95-6.08,0-6.08s-3.9,6.08,0,6.08ZM574.83,434.4c3.94,0,3.9-6.08,0-6.08s-3.91,6.08,0,6.08ZM545.68,391.08c2.57,0,2.57-4.05,0-4.05s-2.62,4.05,0,4.05ZM541.29,391.08c2.62,0,2.62-4.05,0-4.05s-2.62,4.05,0,4.05ZM532.51,393.99c2.62,0,2.62-4.05,0-4.05s-2.58,4.05,0,4.05ZM532.51,398.36c2.62,0,2.62-4.05,0-4.05s-2.58,4.05,0,4.05ZM536.9,400.16c-2.62,0-2.62,4.05,0,4.04h5.19c-.2-1.33-.36-2.66-.56-3.98-1.09.16-2.34-.25-3.14-.97-.85-.72-2.05-.82-2.9,0-.72.74-.8,2.15,0,2.87,2.05,1.76,4.47,2.41,7.13,2.01,1-.17,1.57-1.33,1.45-2.23-.12-.99-1.01-1.76-1.98-1.76-1.73,0-3.46,0-5.19.02ZM536.9,405.66c2.62,0,2.62-4.05,0-4.05s-2.62,4.05,0,4.05ZM526.71,418.79c2.58,0,2.58-4.05,0-4.05s-2.61,4.05,0,4.05ZM525.22,393.99c2.62,0,2.62-4.05,0-4.05s-2.57,4.05,0,4.05ZM534,392.53c2.62,0,2.62-4.05,0-4.05s-2.62,4.05,0,4.05ZM535.45,386.7c2.62,0,2.62-4.06,0-4.06s-2.62,4.06,0,4.06ZM554.98,396.37c2.33,1.17,4.39-2.33,2.05-3.5-2.9-1.47-5.84-2.95-8.74-4.41-2.33-1.18-4.38,2.32-2.05,3.49,2.9,1.47,5.84,2.95,8.74,4.42ZM569.67,385.73c2.54-.72,1.45-4.62-1.04-3.9-6.73,1.93-12.32,6.06-16.19,11.87-1.49,2.18,2.06,4.21,3.46,2.05,3.31-4.93,8.1-8.38,13.77-10.02h0ZM555.86,392.53c2.62,0,2.62-4.05,0-4.05s-2.61,4.05,0,4.05ZM544.23,383.78c2.57,0,2.57-4.05,0-4.05s-2.62,4.05,0,4.05ZM551.48,385.23c1.16,0,2.01-.93,2.05-2.01.04-1.1-.97-2.03-2.05-2.03h-1.45c-1.13,0-1.98.93-2.02,2.03-.04,1.08.97,2.01,2.02,2.01h1.45ZM580.67,400.84c3.94,0,3.9-6.08,0-6.08s-3.91,6.08,0,6.08ZM567.54,399.38c3.91,0,3.91-6.08,0-6.08s-3.9,6.08,0,6.08ZM555.86,400.84c3.95,0,3.91-6.08,0-6.08s-3.9,6.08,0,6.08ZM547.13,400.84c3.9,0,3.9-6.08,0-6.08s-3.91,6.08,0,6.08ZM542.62,403.63c0,.83.36,1.56.88,2.16.57.59,1.37.85,2.18.88.72.04,1.61-.36,2.13-.88.57-.56.89-1.38.89-2.16v-1.46c0-.82-.32-1.54-.89-2.14-.56-.6-1.37-.86-2.13-.89-.77-.04-1.65.37-2.18.89-.52.55-.88,1.36-.88,2.14v1.46ZM544.23,406.67c3.9,0,3.86-6.08,0-6.08s-3.95,6.08,0,6.08ZM534,405.21c3.91,0,3.91-6.07,0-6.07s-3.9,6.07,0,6.07ZM541.29,397.93c3.9,0,3.9-6.08,0-6.08s-3.91,6.08,0,6.08ZM560.25,387.71c3.91,0,3.91-6.08,0-6.08s-3.9,6.08,0,6.08ZM558.8,400.84c3.91,0,3.91-6.08,0-6.08s-3.9,6.08,0,6.08ZM554.41,409.6c3.91,0,3.91-6.08,0-6.08s-3.9,6.08,0,6.08ZM539.84,418.34c3.9,0,3.9-6.08,0-6.08s-3.91,6.08,0,6.08ZM542.74,411.05c3.9,0,3.9-6.07,0-6.07s-3.91,6.07,0,6.07ZM541.29,424.62c2.62,0,2.62-4.05,0-4.05s-2.62,4.05,0,4.05ZM544.23,424.62c2.57,0,2.57-4.05,0-4.05s-2.62,4.05,0,4.05ZM554.41,433.38c2.62,0,2.62-4.05,0-4.05s-2.61,4.05,0,4.05ZM563.19,429c2.58,0,2.58-4.04,0-4.04s-2.62,4.04,0,4.04ZM566.09,423.17c2.62,0,2.62-4.06,0-4.06s-2.62,4.06,0,4.06ZM572.73,410.14c.41-1.01-.44-2.24-1.41-2.5-1.16-.29-2.09.4-2.49,1.42-1.01,2.43-2.01,4.83-3.02,7.26-.4,1.01.44,2.24,1.41,2.49,1.17.3,2.09-.39,2.49-1.42,1.01-2.42,2.02-4.83,3.02-7.25ZM568.99,411.49c2.62,0,2.62-4.05,0-4.05s-2.58,4.05,0,4.05ZM557.35,412.41c-.8.8-.72,2.06,0,2.87.73.81,2.14.75,2.86,0,.49-.49,1.01-.97,1.45-1.46.81-.8.77-2.06,0-2.86-.72-.81-2.09-.75-2.86,0-.48.48-.96.97-1.45,1.45ZM560.25,418.79c2.62,0,2.62-4.05,0-4.05s-2.61,4.05,0,4.05ZM567.98,424.35c2.34,1.16,4.39-2.33,2.06-3.5-1.98-.97-3.91-1.94-5.84-2.91-2.34-1.18-4.39,2.32-2.06,3.49,1.94.98,3.91,1.95,5.84,2.92ZM568.99,430.46c2.62,0,2.62-4.05,0-4.05s-2.58,4.05,0,4.05ZM563.19,430.46c2.58,0,2.58-4.05,0-4.05s-2.62,4.05,0,4.05ZM536.9,435.16c-1.13,0-1.97.93-2.01,2.03-.04,1.09.96,2.03,2.01,2.03h1.49c1.13,0,1.97-.93,2.01-2.03s-.96-2.03-2.01-2.03h-1.49ZM536.9,443.59c2.62,0,2.62-4.05,0-4.05s-2.62,4.05,0,4.05ZM541.29,452.35c2.62,0,2.62-4.06,0-4.06s-2.62,4.06,0,4.06ZM501.91,450.89c2.58,0,2.58-4.06,0-4.06s-2.62,4.06,0,4.06ZM523.77,431.92c2.62,0,2.62-4.05,0-4.05s-2.61,4.05,0,4.05ZM534,471.31c2.62,0,2.62-4.05,0-4.05s-2.62,4.05,0,4.05ZM599.63,466.93c2.62,0,2.62-4.05,0-4.05s-2.62,4.05,0,4.05ZM631.72,399.83c2.62,0,2.62-4.06,0-4.06s-2.58,4.06,0,4.06ZM577.77,380.86c2.61,0,2.61-4.05,0-4.05s-2.62,4.05,0,4.05ZM589.44,391.08c2.58,0,2.58-4.05,0-4.05s-2.61,4.05,0,4.05ZM583.6,404.2c2.62,0,2.62-4.04,0-4.04s-2.61,4.04,0,4.04ZM576.28,405.66c2.61,0,2.61-4.06,0-4.06s-2.58,4.06,0,4.06ZM568.99,404.2c2.62,0,2.62-4.04,0-4.04s-2.58,4.04,0,4.04ZM564.64,402.75c2.62,0,2.62-4.06,0-4.06s-2.62,4.06,0,4.06ZM574.83,417.33c2.61,0,2.61-4.05,0-4.05s-2.62,4.05,0,4.05ZM550.02,396.02c5.24,0,5.24-8.11,0-8.11s-5.19,8.11,0,8.11ZM551.47,378.51c5.24,0,5.24-8.1,0-8.1s-5.19,8.1,0,8.1ZM550.79,421.8c2.37,4.65,9.38.54,7.01-4.09-2.06-3.94-3.31-8.2-3.67-12.61-.4-5.18-8.53-5.21-8.09,0,.48,5.89,2.01,11.43,4.75,16.7ZM563.19,412.06c5.19,0,5.19-8.1,0-8.1s-5.23,8.1,0,8.1ZM558.8,398.94c5.2,0,5.2-8.11,0-8.11s-5.23,8.11,0,8.11ZM576.24,388.99c3.74-3.66-2.02-9.39-5.72-5.73-2.7,2.65-4.23,6.37-4.07,10.16.08,2.2,1.77,4.06,4.03,4.06,2.13,0,4.15-1.87,4.06-4.06-.08-1.83.33-3.11,1.7-4.43ZM912.92,606.92c.76.03.76-1.2,0-1.25-3.59-.15-7.17-.04-10.75.34-.77.09-.77,1.32,0,1.25,3.58-.39,7.16-.5,10.75-.34ZM908.69,610.97c-.44-.66-1.53-.04-1.09.62.4.6.81,1.2,1.21,1.79.44.67,1.53.05,1.05-.63-.37-.59-.77-1.18-1.17-1.78ZM905.27,608.8c.8-.13.48-1.33-.33-1.2-1.16.19-2.37.39-3.54.59-.8.13-.48,1.32.32,1.19,1.17-.2,2.38-.39,3.55-.58ZM909.33,619.67c.77,0,.77-1.25,0-1.25s-.8,1.25,0,1.25ZM899.79,629.14c-.8,0-.8,1.24,0,1.24h1.77c.81,0,.81-1.24,0-1.24h-1.77ZM928.98,629.79c.77,0,.77-1.25,0-1.25s-.8,1.25,0,1.25ZM939.69,641.69c.81,0,.81-1.24,0-1.24s-.8,1.24,0,1.24ZM931.96,646.46c.77,0,.77-1.24,0-1.24s-.8,1.24,0,1.24ZM925.4,643.49c.8,0,.8-1.25,0-1.25s-.81,1.25,0,1.25ZM947.14,631.43c.28.15.68.09.85-.22.16-.28.08-.7-.21-.86-.4-.19-.8-.39-1.2-.59-.29-.15-.69-.08-.85.22-.16.28-.08.7.2.86.4.2.81.39,1.21.59ZM955.15,633.95c.81,0,.81-1.24,0-1.24h-1.77c-.8,0-.8,1.24,0,1.24h1.77ZM953.38,640.51c.81,0,.81-1.25,0-1.25s-.8,1.25,0,1.25ZM927.77,626.81c.81,0,.81-1.25,0-1.25s-.8,1.25,0,1.25ZM912.31,616.68c.77,0,.77-1.24,0-1.24s-.8,1.24,0,1.24ZM914.08,619.67c.81,0,.81-1.25,0-1.25s-.8,1.25,0,1.25ZM920.61,619.07c.8,0,.8-1.25,0-1.25s-.77,1.25,0,1.25ZM923.02,614.9c.81,0,.77-1.24,0-1.24s-.8,1.24,0,1.24ZM917.06,623.24c.81,0,.81-1.25,0-1.25s-.8,1.25,0,1.25ZM953.98,616.11c1.61,0,1.57-2.48,0-2.48s-1.61,2.48,0,2.48ZM956.36,626.24c1.61,0,1.61-2.49,0-2.49s-1.61,2.49,0,2.49ZM869.11,609.56c1.61,0,1.61-2.48,0-2.48s-1.57,2.48,0,2.48ZM886.99,614.92c1.61,0,1.61-2.48,0-2.48s-1.61,2.48,0,2.48ZM913.76,578.92c2.42,0,2.42-3.72,0-3.72s-2.37,3.72,0,3.72ZM941.46,575.34c2.42,0,2.42-3.72,0-3.72s-2.37,3.72,0,3.72ZM931.64,585.17c2.41,0,2.41-3.72,0-3.72s-2.38,3.72,0,3.72ZM910.22,610.18c2.37,0,2.37-3.72,0-3.72s-2.42,3.72,0,3.72ZM902.17,603.04c2.41,0,2.37-3.73,0-3.73s-2.38,3.73,0,3.73ZM888.76,598.57c2.41,0,2.41-3.73,0-3.73s-2.38,3.73,0,3.73ZM898.58,609.29c.53,0,.97-.21,1.33-.55.36-.33.52-.83.52-1.31.04-.47-.2-.99-.52-1.31-.36-.34-.84-.55-1.33-.55h-.88c-.49,0-.93.21-1.29.55-.4.33-.53.83-.57,1.31-.04.46.21.99.57,1.31.32.34.8.55,1.29.55h.88ZM924.51,626.26c2.38,0,2.38-3.72,0-3.72s-2.41,3.72,0,3.72ZM935.22,620.9c2.38,0,2.38-3.72,0-3.72s-2.41,3.72,0,3.72ZM917.35,594.38c1.61,0,1.61-2.48,0-2.48s-1.57,2.48,0,2.48ZM914.69,594.38c1.57,0,1.57-2.48,0-2.48s-1.61,2.48,0,2.48ZM909.33,596.17c1.57,0,1.57-2.49,0-2.49s-1.61,2.49,0,2.49ZM909.33,598.85c1.57,0,1.57-2.49,0-2.49s-1.61,2.49,0,2.49ZM911.99,599.93c-1.61.01-1.61,2.49,0,2.49,1.05,0,2.13,0,3.18-.01-.12-.81-.24-1.62-.32-2.44-.69.11-1.45-.15-1.97-.58-.49-.44-1.25-.5-1.74,0-.44.45-.52,1.31,0,1.75,1.25,1.08,2.7,1.48,4.35,1.23.61-.1.97-.82.89-1.36-.08-.61-.6-1.08-1.21-1.08h-3.18ZM911.99,603.32c1.61,0,1.61-2.49,0-2.49s-1.61,2.49,0,2.49ZM905.75,611.34c1.57,0,1.57-2.47,0-2.47s-1.61,2.47,0,2.47ZM904.86,596.17c1.57,0,1.57-2.49,0-2.49s-1.61,2.49,0,2.49ZM910.22,595.27c1.57,0,1.57-2.48,0-2.48s-1.61,2.48,0,2.48ZM911.1,591.7c1.62,0,1.62-2.49,0-2.49s-1.61,2.49,0,2.49ZM923.06,597.62c1.41.72,2.66-1.42,1.25-2.15-1.77-.89-3.54-1.8-5.35-2.7-1.41-.71-2.66,1.42-1.25,2.15,1.77.89,3.58,1.8,5.35,2.7ZM932.08,591.11c1.53-.45.85-2.84-.68-2.4-4.11,1.19-7.53,3.72-9.91,7.27-.88,1.34,1.25,2.58,2.14,1.26,2.01-3.02,4.95-5.13,8.45-6.13h0ZM923.59,595.27c1.61,0,1.61-2.48,0-2.48s-1.57,2.48,0,2.48ZM916.46,589.92c1.61,0,1.61-2.49,0-2.49s-1.61,2.49,0,2.49ZM920.93,590.8c.68,0,1.21-.56,1.25-1.23,0-.68-.61-1.24-1.25-1.24h-.89c-.72,0-1.2.56-1.24,1.24-.04.67.6,1.23,1.24,1.23h.89ZM938.81,600.36c2.37,0,2.37-3.72,0-3.72s-2.42,3.72,0,3.72ZM930.75,599.46c2.38,0,2.38-3.72,0-3.72s-2.41,3.72,0,3.72ZM923.59,600.36c2.41,0,2.41-3.72,0-3.72s-2.38,3.72,0,3.72ZM918.23,600.36c2.42,0,2.42-3.72,0-3.72s-2.37,3.72,0,3.72ZM915.49,602.07c0,.51.2.96.57,1.32.32.36.8.52,1.29.54.48.02,1-.22,1.32-.54.33-.34.53-.84.53-1.32v-.89c0-.51-.2-.96-.53-1.32-.36-.37-.84-.53-1.32-.55-.45-.02-1.01.23-1.29.55-.37.34-.57.84-.57,1.32v.89ZM916.46,603.93c2.38,0,2.38-3.72,0-3.72s-2.38,3.72,0,3.72ZM910.22,603.04c2.37,0,2.37-3.73,0-3.73s-2.42,3.73,0,3.73ZM914.69,598.57c2.37,0,2.37-3.73,0-3.73s-2.42,3.73,0,3.73ZM926.28,592.32c2.42,0,2.38-3.72,0-3.72s-2.37,3.72,0,3.72ZM925.4,600.36c2.37,0,2.37-3.72,0-3.72s-2.42,3.72,0,3.72ZM922.7,605.72c2.42,0,2.42-3.73,0-3.73s-2.38,3.73,0,3.73ZM913.76,611.08c2.42,0,2.42-3.72,0-3.72s-2.37,3.72,0,3.72ZM915.57,606.61c2.38,0,2.38-3.72,0-3.72s-2.41,3.72,0,3.72ZM914.69,614.92c1.57,0,1.57-2.48,0-2.48s-1.61,2.48,0,2.48ZM916.46,614.92c1.61,0,1.61-2.48,0-2.48s-1.61,2.48,0,2.48ZM922.7,620.28c1.61,0,1.61-2.48,0-2.48s-1.57,2.48,0,2.48ZM928.06,617.61c1.61,0,1.61-2.49,0-2.49s-1.57,2.49,0,2.49ZM929.87,614.03c1.61,0,1.57-2.48,0-2.48s-1.61,2.48,0,2.48ZM933.93,606.05c.25-.61-.28-1.37-.88-1.53-.69-.18-1.25.24-1.53.87-.61,1.48-1.21,2.97-1.81,4.44-.29.62.28,1.38.84,1.53.73.19,1.29-.24,1.53-.87.61-1.48,1.21-2.95,1.85-4.44ZM931.64,606.89c1.61,0,1.61-2.49,0-2.49s-1.61,2.49,0,2.49ZM924.51,607.44c-.48.49-.44,1.26,0,1.76.45.49,1.29.46,1.77,0,.29-.3.57-.59.89-.9.48-.48.44-1.25,0-1.74-.48-.51-1.29-.47-1.77,0-.28.28-.57.58-.89.88ZM926.28,611.34c1.61,0,1.61-2.47,0-2.47s-1.61,2.47,0,2.47ZM930.99,614.75c1.45.71,2.7-1.42,1.29-2.13-1.2-.6-2.41-1.2-3.58-1.8-1.45-.71-2.7,1.43-1.25,2.15,1.17.59,2.38,1.19,3.54,1.78ZM931.64,618.49c1.61,0,1.61-2.47,0-2.47s-1.61,2.47,0,2.47ZM928.06,618.49c1.61,0,1.61-2.47,0-2.47s-1.57,2.47,0,2.47ZM911.99,621.37c-.68,0-1.21.57-1.25,1.24,0,.67.61,1.25,1.25,1.25h.89c.72,0,1.2-.58,1.24-1.25.04-.66-.6-1.24-1.24-1.24h-.89ZM911.99,626.54c1.61,0,1.61-2.49,0-2.49s-1.61,2.49,0,2.49ZM914.69,631.89c1.57,0,1.57-2.48,0-2.48s-1.61,2.48,0,2.48ZM890.57,631c1.57,0,1.57-2.48,0-2.48s-1.61,2.48,0,2.48ZM903.94,619.39c1.61,0,1.61-2.49,0-2.49s-1.57,2.49,0,2.49ZM910.22,643.51c1.57,0,1.57-2.49,0-2.49s-1.61,2.49,0,2.49ZM950.4,640.83c1.61,0,1.61-2.49,0-2.49s-1.61,2.49,0,2.49ZM970.05,599.74c1.61,0,1.61-2.48,0-2.48s-1.61,2.48,0,2.48ZM936.99,588.12c1.61,0,1.61-2.48,0-2.48s-1.57,2.48,0,2.48ZM944.16,594.38c1.57,0,1.57-2.48,0-2.48s-1.61,2.48,0,2.48ZM940.58,602.42c1.61,0,1.61-2.49,0-2.49s-1.61,2.49,0,2.49ZM936.11,603.32c1.61,0,1.61-2.49,0-2.49s-1.61,2.49,0,2.49ZM931.64,602.42c1.61,0,1.61-2.49,0-2.49s-1.61,2.49,0,2.49ZM928.98,601.52c1.57,0,1.57-2.47,0-2.47s-1.61,2.47,0,2.47ZM935.22,610.46c1.61,0,1.61-2.49,0-2.49s-1.61,2.49,0,2.49ZM920.04,597.4c3.18,0,3.18-4.96,0-4.96s-3.22,4.96,0,4.96ZM920.93,586.68c3.18,0,3.18-4.96,0-4.96s-3.18,4.96,0,4.96ZM920.49,613.19c1.45,2.85,5.75.33,4.26-2.51-1.24-2.4-1.97-5.01-2.21-7.72-.24-3.17-5.23-3.18-4.95,0,.28,3.62,1.25,7,2.9,10.23h0ZM928.06,607.23c3.22,0,3.22-4.96,0-4.96s-3.19,4.96,0,4.96ZM925.4,599.2c3.18,0,3.18-4.98,0-4.98s-3.18,4.98,0,4.98ZM936.07,593.1c2.29-2.23-1.21-5.74-3.5-3.5-1.66,1.62-2.58,3.89-2.5,6.21.04,1.35,1.09,2.49,2.5,2.49,1.28,0,2.53-1.14,2.45-2.49-.04-1.11.24-1.89,1.05-2.71ZM879.1,608.54c1.16.05,1.16-1.77,0-1.82-5.28-.23-10.51-.07-15.75.5-1.16.13-1.16,1.95,0,1.82,5.24-.56,10.47-.72,15.75-.5ZM872.9,614.5c-.65-.97-2.22-.05-1.58.92.61.88,1.17,1.76,1.74,2.64.68.97,2.25.05,1.61-.93-.61-.88-1.17-1.75-1.77-2.63ZM867.9,611.3c1.17-.19.69-1.95-.48-1.76-1.73.29-3.5.58-5.24.87-1.16.19-.68,1.95.49,1.76,1.73-.29,3.5-.58,5.23-.87ZM873.82,627.28c1.17,0,1.17-1.82,0-1.82s-1.17,1.82,0,1.82ZM859.81,641.22c-1.17,0-1.17,1.83,0,1.83h2.66c1.16,0,1.16-1.83,0-1.83h-2.66ZM902.73,642.17c1.17,0,1.17-1.82,0-1.82s-1.17,1.82,0,1.82ZM918.47,659.69c1.21,0,1.21-1.83,0-1.83s-1.17,1.83,0,1.83ZM907.12,666.69c1.17,0,1.17-1.82,0-1.82s-1.17,1.82,0,1.82ZM897.5,662.31c1.16,0,1.16-1.82,0-1.82s-1.21,1.82,0,1.82ZM929.46,644.59c.45.23.97.12,1.25-.33.24-.4.12-1.02-.32-1.24-.6-.29-1.17-.59-1.77-.88-.44-.22-.97-.12-1.25.33-.24.4-.12,1.02.32,1.25.61.29,1.17.58,1.77.87ZM941.26,648.31c1.17,0,1.17-1.83,0-1.83h-2.62c-1.2,0-1.2,1.83,0,1.83h2.62ZM938.64,657.94c1.17,0,1.17-1.83,0-1.83s-1.2,1.83,0,1.83ZM900.96,637.8c1.21,0,1.21-1.82,0-1.82s-1.17,1.82,0,1.82ZM878.21,622.91c1.17,0,1.17-1.83,0-1.83s-1.17,1.83,0,1.83ZM880.83,627.28c1.16,0,1.16-1.82,0-1.82s-1.17,1.82,0,1.82ZM890.45,626.41c1.21,0,1.21-1.83,0-1.83s-1.17,1.83,0,1.83ZM893.95,620.28c1.21,0,1.21-1.82,0-1.82s-1.17,1.82,0,1.82ZM885.21,632.54c1.17,0,1.17-1.83,0-1.83s-1.16,1.83,0,1.83ZM939.49,622.07c2.37,0,2.37-3.65,0-3.65s-2.34,3.65,0,3.65ZM943.03,636.96c2.34,0,2.34-3.65,0-3.65s-2.37,3.65,0,3.65ZM814.71,612.44c2.38,0,2.34-3.65,0-3.65s-2.33,3.65,0,3.65ZM841.01,620.31c2.33,0,2.33-3.64,0-3.64s-2.38,3.64,0,3.64ZM880.38,567.37c3.55,0,3.55-5.47,0-5.47s-3.5,5.47,0,5.47ZM921.13,562.12c3.5,0,3.5-5.47,0-5.47s-3.54,5.47,0,5.47ZM906.67,576.56c3.51,0,3.51-5.47,0-5.47s-3.54,5.47,0,5.47ZM875.15,613.35c3.5,0,3.5-5.47,0-5.47s-3.54,5.47,0,5.47ZM863.31,602.83c3.54,0,3.54-5.47,0-5.47s-3.5,5.47,0,5.47ZM843.62,596.27c3.51,0,3.51-5.47,0-5.47s-3.54,5.47,0,5.47ZM858.08,612.03c.72,0,1.37-.31,1.93-.8.52-.49.77-1.23.81-1.93.04-.69-.33-1.46-.81-1.93-.52-.5-1.25-.81-1.93-.81h-1.33c-.73,0-1.41.31-1.93.81-.53.49-.77,1.22-.81,1.93-.04.68.32,1.46.81,1.93.48.5,1.24.8,1.93.8h1.33ZM896.17,636.99c3.5,0,3.5-5.47,0-5.47s-3.55,5.47,0,5.47ZM911.91,629.1c3.54,0,3.54-5.47,0-5.47s-3.5,5.47,0,5.47ZM885.66,590.11c2.33,0,2.33-3.65,0-3.65s-2.38,3.65,0,3.65ZM881.71,590.11c2.34,0,2.34-3.65,0-3.65s-2.33,3.65,0,3.65ZM873.82,592.73c2.34,0,2.34-3.65,0-3.65s-2.34,3.65,0,3.65ZM873.82,596.67c2.34,0,2.34-3.65,0-3.65s-2.34,3.65,0,3.65ZM877.77,598.28c-2.34,0-2.34,3.65,0,3.65,1.57,0,3.1,0,4.67,0-.16-1.2-.33-2.39-.49-3.59-1,.16-2.13-.21-2.86-.86-.76-.64-1.85-.74-2.57,0-.69.66-.77,1.94,0,2.58,1.81,1.59,4.02,2.17,6.4,1.8.88-.14,1.41-1.18,1.29-2-.08-.89-.89-1.58-1.77-1.58-1.57,0-3.1.01-4.67.01ZM877.77,603.24c2.37,0,2.37-3.65,0-3.65s-2.34,3.65,0,3.65ZM868.59,615.06c2.33,0,2.33-3.65,0-3.65s-2.38,3.65,0,3.65ZM867.26,592.73c2.37,0,2.33-3.65,0-3.65s-2.34,3.65,0,3.65ZM875.15,591.42c2.33,0,2.33-3.65,0-3.65s-2.34,3.65,0,3.65ZM876.44,586.16c2.37,0,2.37-3.64,0-3.64s-2.34,3.64,0,3.64ZM894.03,594.88c2.1,1.05,3.95-2.09,1.85-3.16-2.61-1.32-5.23-2.65-7.85-3.97-2.09-1.07-3.94,2.09-1.85,3.15,2.62,1.32,5.24,2.64,7.85,3.98ZM907.28,585.3c2.25-.65,1.29-4.17-.97-3.52-6.04,1.74-11.07,5.46-14.57,10.68-1.33,1.97,1.85,3.79,3.14,1.85,2.98-4.43,7.29-7.54,12.4-9.01ZM894.84,591.42c2.37,0,2.33-3.65,0-3.65s-2.34,3.65,0,3.65ZM884.33,583.54c2.37,0,2.33-3.65,0-3.65s-2.34,3.65,0,3.65ZM890.89,584.85c1.05,0,1.81-.83,1.85-1.82s-.88-1.83-1.85-1.83h-1.29c-1.04,0-1.77.83-1.85,1.83-.04.98.89,1.82,1.85,1.82h1.29ZM917.18,598.9c3.55,0,3.51-5.47,0-5.47s-3.54,5.47,0,5.47ZM905.35,597.59c3.54,0,3.54-5.48,0-5.48s-3.51,5.48,0,5.48ZM894.84,598.9c3.54,0,3.54-5.47,0-5.47s-3.51,5.47,0,5.47ZM886.95,598.9c3.54,0,3.54-5.47,0-5.47s-3.51,5.47,0,5.47ZM882.92,601.42c0,.74.32,1.39.8,1.94.49.53,1.21.76,1.94.8.68.02,1.45-.33,1.93-.8.48-.5.81-1.24.81-1.94v-1.32c0-.74-.33-1.39-.81-1.94-.48-.53-1.21-.77-1.93-.8-.69-.02-1.49.33-1.94.8-.52.5-.8,1.24-.8,1.94v1.32ZM884.33,604.16c3.54,0,3.54-5.47,0-5.47s-3.5,5.47,0,5.47ZM875.15,602.83c3.5,0,3.5-5.47,0-5.47s-3.54,5.47,0,5.47ZM881.71,596.27c3.54,0,3.5-5.47,0-5.47s-3.5,5.47,0,5.47ZM898.78,587.08c3.55,0,3.55-5.47,0-5.47s-3.5,5.47,0,5.47ZM897.49,598.9c3.51,0,3.51-5.47,0-5.47s-3.54,5.47,0,5.47ZM893.55,606.78c3.5,0,3.5-5.47,0-5.47s-3.54,5.47,0,5.47ZM880.38,614.66c3.55,0,3.55-5.47,0-5.47s-3.5,5.47,0,5.47ZM883.04,608.09c3.5,0,3.5-5.47,0-5.47s-3.54,5.47,0,5.47ZM881.71,620.31c2.34,0,2.34-3.64,0-3.64s-2.33,3.64,0,3.64ZM884.33,620.31c2.37,0,2.33-3.64,0-3.64s-2.34,3.64,0,3.64ZM893.55,628.2c2.33,0,2.33-3.65,0-3.65s-2.38,3.65,0,3.65ZM901.4,624.25c2.38,0,2.38-3.65,0-3.65s-2.34,3.65,0,3.65ZM904.02,619.01c2.37,0,2.37-3.65,0-3.65s-2.34,3.65,0,3.65ZM910.02,607.27c.36-.91-.41-2.01-1.29-2.24-1.01-.28-1.85.36-2.22,1.27-.92,2.18-1.81,4.35-2.73,6.54-.37.9.44,2.02,1.28,2.24,1.05.28,1.9-.35,2.26-1.27.88-2.19,1.81-4.36,2.7-6.54h0ZM906.67,608.5c2.34,0,2.34-3.65,0-3.65s-2.37,3.65,0,3.65ZM896.17,609.32c-.73.72-.65,1.86,0,2.58.68.72,1.93.67,2.61,0,.41-.44.85-.87,1.29-1.31.73-.73.69-1.86,0-2.58-.64-.73-1.89-.68-2.58,0-.44.44-.88.87-1.32,1.31ZM898.78,615.06c2.34,0,2.34-3.65,0-3.65s-2.33,3.65,0,3.65ZM905.75,620.07c2.09,1.05,3.94-2.1,1.85-3.16-1.77-.87-3.5-1.74-5.27-2.62-2.1-1.05-3.95,2.1-1.82,3.15,1.74.87,3.47,1.76,5.24,2.63ZM906.67,625.58c2.34,0,2.34-3.65,0-3.65s-2.37,3.65,0,3.65ZM901.4,625.58c2.38,0,2.38-3.65,0-3.65s-2.34,3.65,0,3.65ZM877.77,629.8c-1.01,0-1.78.84-1.82,1.83s.85,1.82,1.82,1.82h1.32c1.01,0,1.78-.83,1.82-1.82s-.89-1.83-1.82-1.83h-1.32ZM877.77,637.39c2.37,0,2.37-3.64,0-3.64s-2.34,3.64,0,3.64ZM881.71,645.28c2.34,0,2.34-3.65,0-3.65s-2.33,3.65,0,3.65ZM846.24,643.97c2.34,0,2.34-3.65,0-3.65s-2.34,3.65,0,3.65ZM865.93,626.89c2.37,0,2.37-3.65,0-3.65s-2.34,3.65,0,3.65ZM875.15,662.35c2.33,0,2.33-3.64,0-3.64s-2.34,3.64,0,3.64ZM934.26,658.41c2.33,0,2.33-3.65,0-3.65s-2.34,3.65,0,3.65ZM963.16,597.98c2.34,0,2.34-3.65,0-3.65s-2.37,3.65,0,3.65ZM914.57,580.91c2.33,0,2.33-3.64,0-3.64s-2.38,3.64,0,3.64ZM925.08,590.11c2.33,0,2.33-3.65,0-3.65s-2.38,3.65,0,3.65ZM919.8,601.93c2.38,0,2.34-3.65,0-3.65s-2.33,3.65,0,3.65ZM913.24,603.24c2.33,0,2.33-3.65,0-3.65s-2.34,3.65,0,3.65ZM906.68,601.93c2.33,0,2.33-3.65,0-3.65s-2.38,3.65,0,3.65ZM902.73,600.61c2.33,0,2.33-3.64,0-3.64s-2.34,3.64,0,3.64ZM911.91,613.74c2.37,0,2.37-3.64,0-3.64s-2.34,3.64,0,3.64ZM889.6,594.56c4.71,0,4.67-7.3,0-7.3s-4.71,7.3,0,7.3ZM890.89,578.79c4.71,0,4.71-7.29,0-7.29s-4.67,7.29,0,7.29ZM890.25,617.77c2.17,4.19,8.45.49,6.32-3.68-1.85-3.56-2.94-7.38-3.3-11.36-.36-4.65-7.69-4.68-7.29,0,.44,5.32,1.85,10.29,4.27,15.04ZM901.4,609.01c4.71,0,4.71-7.3,0-7.3s-4.67,7.3,0,7.3ZM897.5,597.18c4.67,0,4.67-7.3,0-7.3s-4.72,7.3,0,7.3ZM913.2,588.23c3.34-3.29-1.81-8.46-5.16-5.16-2.45,2.39-3.82,5.73-3.7,9.15.12,1.97,1.61,3.65,3.66,3.65,1.9,0,3.75-1.68,3.67-3.65-.08-1.65.28-2.79,1.53-3.99ZM696.78,1460.66c2.22.1,2.18-3.32,0-3.41-9.86-.44-19.68-.13-29.55.93-2.13.24-2.17,3.66,0,3.43,9.87-1.06,19.69-1.37,29.55-.94ZM685.19,1471.83c-1.25-1.83-4.19-.11-2.98,1.73,1.09,1.64,2.21,3.27,3.3,4.92,1.21,1.82,4.15.12,2.94-1.72-1.09-1.64-2.17-3.29-3.26-4.92ZM675.81,1465.83c2.17-.35,1.25-3.65-.89-3.3-3.3.54-6.56,1.08-9.86,1.62-2.18.35-1.25,3.65.92,3.29,3.26-.54,6.57-1.08,9.83-1.61h0ZM686.92,1495.77c2.21,0,2.17-3.41,0-3.41s-2.21,3.41,0,3.41ZM660.67,1521.88c-2.22,0-2.22,3.41,0,3.41h4.91c2.22,0,2.22-3.41,0-3.41h-4.91ZM741.03,1523.67c2.22,0,2.22-3.43,0-3.43s-2.17,3.43,0,3.43ZM770.59,1556.48c2.17,0,2.17-3.43,0-3.43s-2.22,3.43,0,3.43ZM749.25,1569.6c2.21,0,2.21-3.41,0-3.41s-2.22,3.41,0,3.41ZM731.21,1561.39c2.17,0,2.17-3.41,0-3.41s-2.21,3.41,0,3.41ZM791.12,1528.19c.81.42,1.85.23,2.34-.61.44-.76.2-1.92-.61-2.33-1.08-.56-2.17-1.1-3.3-1.66-.8-.41-1.85-.22-2.33.62-.45.76-.21,1.92.6,2.33,1.13.56,2.21,1.1,3.3,1.64ZM813.23,1535.14c2.21,0,2.21-3.41,0-3.41h-4.92c-2.21,0-2.21,3.41,0,3.41h4.92ZM808.31,1553.19c2.22,0,2.18-3.41,0-3.41s-2.21,3.41,0,3.41ZM737.77,1515.47c2.18,0,2.18-3.43,0-3.43s-2.21,3.43,0,3.43ZM695.09,1487.57c2.22,0,2.22-3.41,0-3.41s-2.17,3.41,0,3.41ZM700.05,1495.77c2.17,0,2.17-3.41,0-3.41s-2.22,3.41,0,3.41ZM718.08,1494.13c2.22,0,2.18-3.41,0-3.41s-2.21,3.41,0,3.41ZM724.65,1482.66c2.21,0,2.21-3.43,0-3.43s-2.22,3.43,0,3.43ZM708.22,1505.62c2.21,0,2.21-3.42,0-3.42s-2.17,3.42,0,3.42ZM809.97,1486c4.38,0,4.38-6.84,0-6.84s-4.43,6.84,0,6.84ZM816.53,1513.88c4.39,0,4.39-6.84,0-6.84s-4.43,6.84,0,6.84ZM576.2,1467.96c4.39,0,4.39-6.84,0-6.84s-4.43,6.84,0,6.84ZM625.4,1482.72c4.39,0,4.39-6.84,0-6.84s-4.43,6.84,0,6.84ZM699.2,1383.53c6.6,0,6.6-10.25,0-10.25s-6.6,10.25,0,10.25ZM775.5,1373.7c6.6,0,6.6-10.26,0-10.26s-6.6,10.26,0,10.26ZM748.44,1400.76c6.61,0,6.57-10.25,0-10.25s-6.6,10.25,0,10.25ZM689.38,1469.66c6.6,0,6.6-10.25,0-10.25s-6.61,10.25,0,10.25ZM667.23,1449.97c6.61,0,6.61-10.25,0-10.25s-6.6,10.25,0,10.25ZM630.31,1437.67c6.6,0,6.6-10.25,0-10.25s-6.6,10.25,0,10.25ZM657.37,1467.2c1.41,0,2.62-.57,3.62-1.51,1.01-.92,1.45-2.29,1.53-3.62.04-1.28-.64-2.74-1.53-3.63-.92-.93-2.29-1.5-3.62-1.5h-2.46c-1.37,0-2.61.58-3.62,1.5-1.01.92-1.45,2.3-1.49,3.63-.08,1.27.6,2.73,1.49,3.62.93.94,2.33,1.51,3.62,1.51h2.46ZM728.76,1513.96c6.6,0,6.56-10.26,0-10.26s-6.61,10.26,0,10.26ZM758.27,1499.19c6.6,0,6.6-10.25,0-10.25s-6.61,10.25,0,10.25ZM709.07,1426.12c4.38,0,4.38-6.84,0-6.84s-4.39,6.84,0,6.84ZM701.66,1426.12c4.43,0,4.43-6.84,0-6.84s-4.39,6.84,0,6.84ZM686.92,1431.04c4.39,0,4.39-6.84,0-6.84s-4.39,6.84,0,6.84ZM686.92,1438.42c4.39,0,4.39-6.84,0-6.84s-4.39,6.84,0,6.84ZM694.29,1441.43c-4.39.01-4.39,6.85,0,6.84,2.9,0,5.84,0,8.74,0-.33-2.24-.61-4.48-.93-6.72-1.85.29-3.94-.39-5.35-1.62-1.37-1.2-3.43-1.38-4.84,0-1.24,1.24-1.36,3.63,0,4.84,3.47,2.98,7.53,4.06,12,3.37,1.73-.26,2.66-2.23,2.46-3.74-.2-1.66-1.65-2.96-3.34-2.96-2.9,0-5.84,0-8.74,0ZM694.29,1450.73c4.39,0,4.39-6.84,0-6.84s-4.39,6.84,0,6.84ZM677.06,1472.87c4.43,0,4.43-6.84,0-6.84s-4.39,6.84,0,6.84ZM674.6,1431.04c4.43,0,4.39-6.84,0-6.84s-4.39,6.84,0,6.84ZM689.38,1428.59c4.39,0,4.39-6.84,0-6.84s-4.43,6.84,0,6.84ZM691.83,1418.74c4.39,0,4.39-6.84,0-6.84s-4.38,6.84,0,6.84ZM724.77,1435.05c3.94,1.99,7.37-3.91,3.46-5.9-4.91-2.49-9.82-4.97-14.74-7.44-3.9-1.99-7.36,3.91-3.46,5.9,4.91,2.49,9.83,4.97,14.74,7.44ZM749.61,1417.11c4.23-1.2,2.42-7.81-1.85-6.59-11.31,3.26-20.74,10.24-27.3,20.03-2.46,3.68,3.46,7.09,5.88,3.45,5.56-8.31,13.65-14.13,23.27-16.89ZM726.3,1428.59c4.39,0,4.39-6.84,0-6.84s-4.43,6.84,0,6.84ZM706.61,1413.81c4.39,0,4.39-6.84,0-6.84s-4.43,6.84,0,6.84ZM718.89,1416.27c1.93,0,3.34-1.57,3.42-3.41.08-1.85-1.61-3.43-3.42-3.43h-2.46c-1.89,0-3.34,1.57-3.42,3.43-.08,1.84,1.65,3.41,3.42,3.41h2.46ZM768.13,1442.59c6.61,0,6.61-10.25,0-10.25s-6.6,10.25,0,10.25ZM745.99,1440.14c6.6,0,6.56-10.26,0-10.26s-6.61,10.26,0,10.26ZM726.3,1442.59c6.6,0,6.6-10.25,0-10.25s-6.6,10.25,0,10.25ZM711.52,1442.59c6.61,0,6.61-10.25,0-10.25s-6.6,10.25,0,10.25ZM703.95,1447.3c0,1.4.57,2.62,1.49,3.63.93,1.01,2.3,1.45,3.63,1.5,1.24.05,2.73-.61,3.62-1.5.93-.93,1.49-2.31,1.49-3.63v-2.45c0-1.4-.56-2.62-1.49-3.63-.93-1.01-2.29-1.44-3.62-1.51-1.29-.05-2.74.61-3.63,1.51-.92.93-1.49,2.3-1.49,3.63v2.45ZM706.61,1452.43c6.6,0,6.56-10.25,0-10.25s-6.6,10.25,0,10.25ZM689.38,1449.97c6.6,0,6.6-10.25,0-10.25s-6.6,10.25,0,10.25ZM701.66,1437.67c6.64,0,6.6-10.25,0-10.25s-6.56,10.25,0,10.25ZM733.67,1420.45c6.6,0,6.6-10.25,0-10.25s-6.61,10.25,0,10.25ZM731.21,1442.59c6.6,0,6.6-10.25,0-10.25s-6.6,10.25,0,10.25ZM723.84,1457.35c6.61,0,6.57-10.25,0-10.25s-6.6,10.25,0,10.25ZM699.2,1472.13c6.61,0,6.61-10.26,0-10.26s-6.6,10.26,0,10.26ZM704.15,1459.81c6.61,0,6.57-10.25,0-10.25s-6.6,10.25,0,10.25ZM701.66,1482.72c4.43,0,4.43-6.84,0-6.84s-4.39,6.84,0,6.84ZM706.61,1482.72c4.39,0,4.39-6.84,0-6.84s-4.43,6.84,0,6.84ZM723.84,1497.48c4.39,0,4.39-6.84,0-6.84s-4.43,6.84,0,6.84ZM738.58,1490.1c4.43,0,4.39-6.84,0-6.84s-4.39,6.84,0,6.84ZM743.49,1480.25c4.43,0,4.43-6.84,0-6.84s-4.39,6.84,0,6.84ZM754.72,1458.28c.69-1.71-.8-3.78-2.41-4.21-1.93-.52-3.46.67-4.19,2.39-1.69,4.09-3.38,8.16-5.07,12.24-.73,1.71.76,3.78,2.37,4.2,1.98.51,3.51-.66,4.23-2.39,1.69-4.08,3.38-8.16,5.07-12.24h0ZM748.44,1460.58c4.39,0,4.39-6.84,0-6.84s-4.43,6.84,0,6.84ZM728.8,1462.12c-1.37,1.34-1.25,3.47,0,4.83,1.24,1.35,3.58,1.27,4.83,0,.8-.82,1.65-1.64,2.45-2.46,1.37-1.34,1.25-3.47,0-4.83s-3.58-1.27-4.83,0c-.8.82-1.65,1.64-2.45,2.46ZM733.67,1472.87c4.39,0,4.39-6.84,0-6.84s-4.39,6.84,0,6.84ZM746.71,1482.25c3.91,1.96,7.37-3.94,3.43-5.9-3.27-1.64-6.53-3.29-9.83-4.93-3.95-1.97-7.37,3.93-3.46,5.91,3.3,1.64,6.56,3.27,9.86,4.92ZM748.44,1492.56c4.39,0,4.39-6.84,0-6.84s-4.42,6.84,0,6.84ZM738.58,1492.56c4.43,0,4.39-6.84,0-6.84s-4.39,6.84,0,6.84ZM694.29,1500.49c-1.89,0-3.34,1.57-3.42,3.42-.08,1.85,1.65,3.41,3.42,3.41h2.46c1.93,0,3.34-1.57,3.42-3.41.08-1.84-1.65-3.42-3.42-3.42h-2.46ZM694.29,1514.7c4.39,0,4.39-6.84,0-6.84s-4.39,6.84,0,6.84ZM701.66,1529.47c4.43,0,4.43-6.84,0-6.84s-4.39,6.84,0,6.84ZM635.22,1527.02c4.43,0,4.43-6.84,0-6.84s-4.38,6.84,0,6.84ZM672.15,1495.02c4.38,0,4.38-6.83,0-6.83s-4.39,6.83,0,6.83ZM689.38,1561.46c4.39,0,4.39-6.83,0-6.83s-4.43,6.83,0,6.83ZM800.1,1554.08c4.39,0,4.39-6.84,0-6.84s-4.39,6.84,0,6.84ZM854.26,1440.88c4.38,0,4.38-6.84,0-6.84s-4.43,6.84,0,6.84ZM763.18,1408.89c4.43,0,4.43-6.84,0-6.84s-4.39,6.84,0,6.84ZM782.87,1426.12c4.43,0,4.43-6.84,0-6.84s-4.39,6.84,0,6.84ZM773.04,1448.26c4.39,0,4.39-6.84,0-6.84s-4.38,6.84,0,6.84ZM760.72,1450.73c4.43,0,4.39-6.84,0-6.84s-4.38,6.84,0,6.84ZM748.44,1448.26c4.39,0,4.39-6.84,0-6.84s-4.42,6.84,0,6.84ZM741.04,1445.8c4.42,0,4.42-6.83,0-6.83s-4.39,6.83,0,6.83ZM758.27,1470.41c4.39,0,4.39-6.83,0-6.83s-4.39,6.83,0,6.83ZM716.43,1434.46c8.82,0,8.82-13.67,0-13.67s-8.77,13.67,0,13.67ZM718.89,1404.93c8.82,0,8.82-13.67,0-13.67s-8.78,13.67,0,13.67ZM717.68,1477.95c4.03,7.84,15.83.91,11.84-6.9-3.46-6.66-5.56-13.82-6.16-21.28-.72-8.72-14.41-8.77-13.69,0,.85,9.96,3.46,19.29,8.01,28.18ZM738.58,1461.52c8.82,0,8.82-13.66,0-13.66s-8.78,13.66,0,13.66ZM731.21,1439.38c8.82,0,8.78-13.68,0-13.68s-8.82,13.68,0,13.68ZM760.64,1422.6c6.28-6.18-3.38-15.83-9.66-9.66-4.59,4.47-7.17,10.74-6.88,17.14.16,3.7,3.01,6.84,6.84,6.84,3.58,0,7.01-3.15,6.84-6.84-.16-3.08.57-5.23,2.86-7.48h0ZM315.13,1906.25c1.13.05,1.09-1.67,0-1.73-4.99-.21-9.94-.06-14.94.47-1.08.12-1.08,1.85,0,1.73,5-.53,9.95-.69,14.94-.47ZM309.25,1911.89c-.6-.92-2.09-.05-1.49.88.57.82,1.13,1.65,1.65,2.48.65.92,2.14.05,1.49-.87-.52-.83-1.08-1.65-1.65-2.49ZM304.54,1908.86c1.09-.18.6-1.85-.44-1.66-1.69.27-3.34.54-4.99.81-1.09.18-.65,1.85.44,1.67,1.69-.28,3.34-.55,4.99-.82ZM310.14,1923.99c1.12,0,1.12-1.73,0-1.73s-1.13,1.73,0,1.73ZM296.85,1937.18c-1.09,0-1.09,1.73,0,1.73h2.5c1.12,0,1.12-1.73,0-1.73h-2.5ZM337.48,1938.09c1.12,0,1.12-1.73,0-1.73s-1.09,1.73,0,1.73ZM352.41,1954.66c1.13,0,1.13-1.73,0-1.73s-1.12,1.73,0,1.73ZM341.62,1961.3c1.13,0,1.13-1.73,0-1.73s-1.08,1.73,0,1.73ZM332.52,1957.15c1.13,0,1.09-1.73,0-1.73s-1.12,1.73,0,1.73ZM362.8,1940.37c.4.21.93.12,1.17-.31.24-.38.12-.97-.32-1.19-.53-.28-1.09-.55-1.65-.83-.41-.2-.93-.11-1.17.31-.24.38-.12.98.32,1.18.52.28,1.09.55,1.65.83ZM373.95,1943.89c1.13,0,1.13-1.73,0-1.73h-2.45c-1.13,0-1.13,1.73,0,1.73h2.45ZM371.5,1953c1.09,0,1.09-1.72,0-1.72s-1.13,1.72,0,1.72ZM335.82,1933.94c1.13,0,1.13-1.73,0-1.73s-1.08,1.73,0,1.73ZM314.28,1919.85c1.13,0,1.13-1.73,0-1.73s-1.12,1.73,0,1.73ZM316.78,1923.99c1.09,0,1.09-1.73,0-1.73s-1.13,1.73,0,1.73ZM325.88,1923.17c1.13,0,1.13-1.73,0-1.73s-1.09,1.73,0,1.73ZM329.18,1917.36c1.13,0,1.13-1.73,0-1.73s-1.09,1.73,0,1.73ZM320.93,1928.97c1.08,0,1.08-1.73,0-1.73s-1.13,1.73,0,1.73ZM372.3,1919.05c2.22,0,2.22-3.46,0-3.46s-2.21,3.46,0,3.46ZM375.61,1933.14c2.25,0,2.25-3.45,0-3.45s-2.22,3.45,0,3.45ZM254.17,1909.93c2.26,0,2.22-3.45,0-3.45s-2.21,3.45,0,3.45ZM279.05,1917.4c2.22,0,2.22-3.46,0-3.46s-2.21,3.46,0,3.46ZM316.34,1867.27c3.34,0,3.34-5.17,0-5.17s-3.3,5.17,0,5.17ZM354.91,1862.3c3.34,0,3.34-5.18,0-5.18s-3.34,5.18,0,5.18ZM341.22,1875.98c3.34,0,3.34-5.17,0-5.17s-3.34,5.17,0,5.17ZM311.39,1910.79c3.34,0,3.34-5.17,0-5.17s-3.35,5.17,0,5.17ZM300.19,1900.85c3.34,0,3.34-5.18,0-5.18s-3.34,5.18,0,5.18ZM281.55,1894.63c3.34,0,3.3-5.18,0-5.18s-3.34,5.18,0,5.18ZM295.2,1909.56c.73,0,1.33-.3,1.85-.76.49-.47.73-1.16.77-1.83,0-.65-.32-1.39-.77-1.84-.48-.47-1.17-.76-1.85-.76h-1.25c-.68,0-1.29.3-1.81.76-.52.47-.72,1.16-.76,1.84,0,.64.32,1.39.76,1.83.48.47,1.17.76,1.81.76h1.25ZM331.28,1933.18c3.34,0,3.34-5.18,0-5.18s-3.35,5.18,0,5.18ZM346.17,1925.72c3.39,0,3.35-5.17,0-5.17s-3.3,5.17,0,5.17ZM321.33,1888.8c2.22,0,2.22-3.46,0-3.46s-2.21,3.46,0,3.46ZM317.59,1888.8c2.25,0,2.25-3.46,0-3.46s-2.22,3.46,0,3.46ZM310.14,1891.28c2.21,0,2.21-3.46,0-3.46s-2.22,3.46,0,3.46ZM310.14,1895.02c2.21,0,2.21-3.46,0-3.46s-2.22,3.46,0,3.46ZM313.88,1896.53c-2.25,0-2.25,3.46,0,3.46,1.45,0,2.94-.01,4.39-.01-.16-1.13-.32-2.26-.44-3.39-.97.15-2.01-.2-2.74-.82-.68-.61-1.73-.69-2.42,0-.64.63-.72,1.83,0,2.44,1.74,1.5,3.79,2.06,6.08,1.71.85-.13,1.33-1.12,1.21-1.89-.08-.84-.84-1.5-1.69-1.5-1.45.01-2.94.01-4.39.01ZM313.88,1901.22c2.22,0,2.22-3.44,0-3.44s-2.25,3.44,0,3.44ZM305.15,1912.42c2.25,0,2.25-3.46,0-3.46s-2.22,3.46,0,3.46ZM303.94,1891.28c2.21,0,2.21-3.46,0-3.46s-2.26,3.46,0,3.46ZM311.39,1890.04c2.21,0,2.21-3.46,0-3.46s-2.22,3.46,0,3.46ZM312.63,1885.06c2.22,0,2.22-3.46,0-3.46s-2.21,3.46,0,3.46ZM329.26,1893.31c2.02,1,3.75-1.99,1.77-2.99-2.49-1.25-4.99-2.51-7.44-3.76-1.98-.99-3.75,1.98-1.78,2.99,2.5,1.26,5,2.51,7.45,3.77ZM341.82,1884.24c2.14-.62,1.21-3.95-.92-3.33-5.72,1.64-10.51,5.16-13.81,10.12-1.25,1.85,1.73,3.57,2.98,1.74,2.82-4.19,6.88-7.15,11.75-8.53ZM330.03,1890.04c2.21,0,2.21-3.46,0-3.46s-2.22,3.46,0,3.46ZM320.08,1882.58c2.22,0,2.22-3.46,0-3.46s-2.21,3.46,0,3.46ZM326.28,1883.82c1.01,0,1.69-.79,1.74-1.73.04-.93-.81-1.72-1.74-1.72h-1.2c-.97,0-1.7.79-1.74,1.72-.04.94.81,1.73,1.74,1.73h1.2ZM351.17,1897.12c3.34,0,3.34-5.19,0-5.19s-3.35,5.19,0,5.19ZM339.97,1895.88c3.35,0,3.35-5.18,0-5.18s-3.34,5.18,0,5.18ZM330.03,1897.12c3.34,0,3.34-5.19,0-5.19s-3.34,5.19,0,5.19ZM322.58,1897.12c3.34,0,3.34-5.19,0-5.19s-3.34,5.19,0,5.19ZM318.75,1899.5c0,.7.29,1.33.73,1.83.48.51,1.17.74,1.85.76.65.03,1.37-.31,1.85-.76.45-.47.73-1.16.73-1.83v-1.24c0-.7-.28-1.32-.73-1.83-.48-.5-1.16-.73-1.85-.76-.64-.03-1.37.31-1.85.76-.44.47-.73,1.17-.73,1.83v1.24ZM320.08,1902.09c3.35,0,3.35-5.17,0-5.17s-3.34,5.17,0,5.17ZM311.39,1900.85c3.34,0,3.34-5.18,0-5.18s-3.35,5.18,0,5.18ZM317.59,1894.63c3.34,0,3.34-5.18,0-5.18s-3.3,5.18,0,5.18ZM333.77,1885.93c3.34,0,3.3-5.18,0-5.18s-3.34,5.18,0,5.18ZM332.52,1897.12c3.35,0,3.35-5.19,0-5.19s-3.34,5.19,0,5.19ZM328.78,1904.58c3.34,0,3.34-5.18,0-5.18s-3.34,5.18,0,5.18ZM316.34,1912.04c3.34,0,3.34-5.18,0-5.18s-3.3,5.18,0,5.18ZM318.83,1905.82c3.35,0,3.35-5.18,0-5.18s-3.34,5.18,0,5.18ZM317.59,1917.4c2.25,0,2.25-3.46,0-3.46s-2.22,3.46,0,3.46ZM320.08,1917.4c2.22,0,2.22-3.46,0-3.46s-2.21,3.46,0,3.46ZM328.78,1924.85c2.25,0,2.25-3.46,0-3.46s-2.21,3.46,0,3.46ZM336.27,1921.13c2.21,0,2.21-3.46,0-3.46s-2.26,3.46,0,3.46ZM338.72,1916.15c2.26,0,2.22-3.46,0-3.46s-2.21,3.46,0,3.46ZM344.4,1905.04c.36-.86-.4-1.91-1.21-2.12-1-.26-1.77.34-2.13,1.21-.85,2.06-1.69,4.13-2.58,6.19-.32.86.41,1.91,1.21,2.12,1.01.26,1.77-.34,2.13-1.2.89-2.06,1.74-4.13,2.58-6.19ZM341.22,1906.21c2.22,0,2.22-3.46,0-3.46s-2.21,3.46,0,3.46ZM331.32,1906.98c-.69.68-.65,1.75,0,2.44.6.68,1.77.64,2.41,0,.41-.42.85-.83,1.25-1.25.68-.68.64-1.75,0-2.44-.64-.68-1.81-.64-2.46,0l-1.2,1.25ZM333.77,1912.42c2.22,0,2.22-3.46,0-3.46s-2.25,3.46,0,3.46ZM340.34,1917.16c2.01.99,3.74-1.99,1.77-2.99-1.69-.83-3.35-1.65-5-2.49-1.97-.99-3.7,1.98-1.73,2.99,1.65.82,3.3,1.65,4.96,2.49ZM341.22,1922.37c2.22,0,2.22-3.46,0-3.46s-2.21,3.46,0,3.46ZM336.27,1922.37c2.21,0,2.21-3.46,0-3.46s-2.26,3.46,0,3.46ZM313.88,1926.38c-.96,0-1.69.79-1.73,1.73-.04.93.81,1.73,1.73,1.73h1.21c1.01,0,1.69-.8,1.73-1.73.04-.94-.8-1.73-1.73-1.73h-1.21ZM313.88,1933.56c2.22,0,2.22-3.44,0-3.44s-2.25,3.44,0,3.44ZM317.59,1941.02c2.25,0,2.25-3.45,0-3.45s-2.22,3.45,0,3.45ZM284.05,1939.77c2.21,0,2.21-3.45,0-3.45s-2.26,3.45,0,3.45ZM302.69,1923.61c2.21,0,2.21-3.45,0-3.45s-2.26,3.45,0,3.45ZM311.39,1957.18c2.21,0,2.21-3.46,0-3.46s-2.22,3.46,0,3.46ZM367.35,1953.46c2.22,0,2.22-3.46,0-3.46s-2.25,3.46,0,3.46ZM394.69,1896.25c2.22,0,2.22-3.45,0-3.45s-2.21,3.45,0,3.45ZM348.67,1880.09c2.25,0,2.25-3.46,0-3.46s-2.21,3.46,0,3.46ZM358.61,1888.8c2.26,0,2.26-3.46,0-3.46s-2.21,3.46,0,3.46ZM353.66,1899.99c2.22,0,2.22-3.46,0-3.46s-2.21,3.46,0,3.46ZM347.42,1901.22c2.26,0,2.26-3.44,0-3.44s-2.21,3.44,0,3.44ZM341.22,1899.99c2.22,0,2.22-3.46,0-3.46s-2.21,3.46,0,3.46ZM337.48,1898.74c2.25,0,2.25-3.46,0-3.46s-2.22,3.46,0,3.46ZM346.17,1911.18c2.26,0,2.26-3.46,0-3.46s-2.21,3.46,0,3.46ZM325.08,1893.01c4.42,0,4.42-6.91,0-6.91s-4.47,6.91,0,6.91ZM326.28,1878.09c4.47,0,4.47-6.91,0-6.91s-4.43,6.91,0,6.91ZM325.68,1914.99c2.05,3.96,8.01.46,5.96-3.49-1.73-3.36-2.78-6.99-3.1-10.75-.36-4.41-7.25-4.44-6.89,0,.41,5.03,1.73,9.74,4.03,14.24h0ZM336.27,1906.69c4.43,0,4.43-6.91,0-6.91s-4.47,6.91,0,6.91ZM332.52,1895.5c4.47,0,4.43-6.91,0-6.91s-4.47,6.91,0,6.91ZM347.38,1887.02c3.18-3.12-1.69-8-4.87-4.89-2.3,2.26-3.62,5.43-3.46,8.66.08,1.88,1.49,3.46,3.46,3.46,1.81,0,3.5-1.59,3.42-3.46-.04-1.56.32-2.65,1.45-3.78ZM948.55,1212.48c1.53.06,1.49-2.27,0-2.34-6.72-.3-13.45-.08-20.17.64-1.49.16-1.49,2.5,0,2.33,6.72-.73,13.45-.94,20.17-.64ZM940.62,1220.1c-.81-1.24-2.86-.07-2.01,1.18.76,1.12,1.48,2.24,2.25,3.36.81,1.25,2.82.07,2.01-1.17-.76-1.13-1.49-2.25-2.25-3.37h0ZM934.22,1216.01c1.49-.25.88-2.5-.61-2.25-2.25.37-4.47.74-6.72,1.11-1.49.24-.85,2.49.6,2.25,2.26-.37,4.51-.73,6.73-1.11ZM941.83,1236.47c1.49,0,1.49-2.33,0-2.33s-1.53,2.33,0,2.33ZM923.87,1254.31c-1.49,0-1.49,2.33,0,2.33h3.38c1.49,0,1.49-2.33,0-2.33h-3.38ZM978.79,1255.52c1.53,0,1.53-2.34,0-2.34s-1.49,2.34,0,2.34ZM998.96,1277.94c1.53,0,1.53-2.33,0-2.33s-1.49,2.33,0,2.33ZM984.38,1286.91c1.53,0,1.53-2.34,0-2.34s-1.49,2.34,0,2.34ZM972.06,1281.3c1.53,0,1.53-2.34,0-2.34s-1.49,2.34,0,2.34ZM1013.01,1258.62c.57.27,1.25.15,1.61-.43.28-.51.12-1.31-.44-1.59-.73-.37-1.49-.76-2.21-1.13-.57-.28-1.29-.15-1.62.41-.32.52-.16,1.32.41,1.6.76.37,1.49.76,2.25,1.13ZM1028.11,1263.37c1.53,0,1.49-2.33,0-2.33h-3.34c-1.53,0-1.53,2.33,0,2.33h3.34ZM1024.77,1275.7c1.49,0,1.49-2.33,0-2.33s-1.53,2.33,0,2.33ZM976.57,1249.92c1.49,0,1.49-2.33,0-2.33s-1.53,2.33,0,2.33ZM947.42,1230.87c1.49,0,1.49-2.34,0-2.34s-1.49,2.34,0,2.34ZM950.77,1236.47c1.53,0,1.53-2.33,0-2.33s-1.49,2.33,0,2.33ZM963.13,1235.35c1.49,0,1.49-2.33,0-2.33s-1.53,2.33,0,2.33ZM967.6,1227.5c1.49,0,1.49-2.34,0-2.34s-1.49,2.34,0,2.34ZM956.36,1243.19c1.53,0,1.53-2.32,0-2.32s-1.49,2.32,0,2.32ZM1025.86,1229.79c3.02,0,3.02-4.67,0-4.67s-2.98,4.67,0,4.67ZM1030.37,1248.84c3.01,0,2.97-4.67,0-4.67s-3.02,4.67,0,4.67ZM866.13,1217.46c3.02,0,3.02-4.67,0-4.67s-2.98,4.67,0,4.67ZM899.79,1227.55c2.98,0,2.98-4.67,0-4.67s-3.02,4.67,0,4.67ZM950.2,1159.79c4.55,0,4.51-7.01,0-7.01s-4.47,7.01,0,7.01ZM1002.34,1153.05c4.51,0,4.51-7,0-7s-4.51,7,0,7ZM983.86,1171.55c4.51,0,4.47-7.01,0-7.01s-4.51,7.01,0,7.01ZM943.48,1218.62c4.51,0,4.51-7,0-7s-4.51,7,0,7ZM928.34,1205.18c4.55,0,4.55-7.01,0-7.01s-4.47,7.01,0,7.01ZM903.13,1196.77c4.51,0,4.51-7,0-7s-4.51,7,0,7ZM921.66,1216.95c.92,0,1.77-.39,2.45-1.02.69-.64.97-1.58,1.01-2.48.08-.87-.41-1.88-1.01-2.48-.64-.63-1.57-1.03-2.45-1.03h-1.7c-.96,0-1.81.4-2.49,1.03-.69.63-.97,1.58-1.01,2.48-.04.87.4,1.87,1.01,2.48.64.63,1.57,1.02,2.49,1.02h1.7ZM970.41,1248.89c4.51,0,4.47-7.01,0-7.01s-4.51,7.01,0,7.01ZM990.59,1238.8c4.5,0,4.5-7.01,0-7.01s-4.51,7.01,0,7.01ZM956.97,1188.87c2.98,0,2.98-4.66,0-4.66s-3.02,4.66,0,4.66ZM951.89,1188.87c3.02,0,3.02-4.66,0-4.66s-3.02,4.66,0,4.66ZM941.83,1192.24c2.98,0,2.98-4.67,0-4.67s-3.02,4.67,0,4.67ZM941.83,1197.29c2.98,0,2.98-4.67,0-4.67s-3.02,4.67,0,4.67ZM946.86,1199.34c-3.02.01-3.02,4.68,0,4.67,1.97,0,3.99-.01,5.96-.01-.2-1.53-.4-3.06-.61-4.59-1.28.2-2.69-.27-3.66-1.11-.97-.82-2.37-.95-3.3,0-.85.85-.97,2.48,0,3.31,2.33,2.03,5.15,2.77,8.17,2.31,1.17-.17,1.81-1.53,1.69-2.56-.16-1.13-1.12-2.03-2.29-2.03-1.97.01-3.99.01-5.96.01h0ZM946.86,1205.69c3.02,0,3.02-4.67,0-4.67s-3.02,4.67,0,4.67ZM935.1,1220.82c2.98,0,2.98-4.67,0-4.67s-3.02,4.67,0,4.67ZM933.41,1192.24c3.02,0,3.02-4.67,0-4.67s-3.02,4.67,0,4.67ZM943.48,1190.56c3.02,0,3.02-4.67,0-4.67s-2.98,4.67,0,4.67ZM945.17,1183.84c3.02,0,3.02-4.67,0-4.67s-2.98,4.67,0,4.67ZM967.68,1194.98c2.69,1.36,5.07-2.68,2.37-4.03-3.34-1.69-6.72-3.39-10.06-5.09-2.7-1.35-5.04,2.67-2.38,4.03,3.38,1.69,6.72,3.39,10.07,5.08ZM984.63,1182.73c2.9-.83,1.65-5.34-1.21-4.51-7.77,2.23-14.21,6.99-18.68,13.69-1.69,2.52,2.37,4.84,4.02,2.36,3.79-5.67,9.34-9.66,15.87-11.53ZM968.72,1190.56c2.98,0,2.98-4.67,0-4.67s-3.02,4.67,0,4.67ZM955.28,1180.47c2.97,0,2.97-4.67,0-4.67s-3.02,4.67,0,4.67ZM963.65,1182.15c1.33,0,2.29-1.07,2.34-2.33.08-1.26-1.09-2.33-2.34-2.33h-1.65c-1.33,0-2.3,1.07-2.34,2.33-.08,1.26,1.09,2.33,2.34,2.33h1.65ZM997.31,1200.14c4.51,0,4.51-7.01,0-7.01s-4.51,7.01,0,7.01ZM982.17,1198.45c4.51,0,4.51-7.01,0-7.01s-4.51,7.01,0,7.01ZM968.72,1200.14c4.51,0,4.51-7.01,0-7.01s-4.51,7.01,0,7.01ZM958.62,1200.14c4.51,0,4.51-7.01,0-7.01s-4.51,7.01,0,7.01ZM953.42,1203.36c0,.95.41,1.79,1.05,2.47.64.69,1.57.98,2.5,1.03.84.04,1.85-.42,2.45-1.03.65-.64,1.01-1.58,1.01-2.47v-1.69c0-.95-.36-1.79-1.01-2.47-.64-.7-1.57-.98-2.45-1.03-.89-.04-1.9.42-2.5,1.03-.64.64-1.05,1.58-1.05,2.47v1.69ZM955.28,1206.86c4.5,0,4.5-7.01,0-7.01s-4.51,7.01,0,7.01ZM943.48,1205.18c4.51,0,4.51-7.01,0-7.01s-4.51,7.01,0,7.01ZM951.89,1196.77c4.51,0,4.51-7,0-7s-4.51,7,0,7ZM973.76,1185c4.51,0,4.51-7.01,0-7.01s-4.51,7.01,0,7.01ZM972.07,1200.14c4.5,0,4.5-7.01,0-7.01s-4.51,7.01,0,7.01ZM967.03,1210.22c4.51,0,4.51-7,0-7s-4.51,7,0,7ZM950.2,1220.31c4.55,0,4.51-7.01,0-7.01s-4.47,7.01,0,7.01ZM953.58,1211.9c4.51,0,4.51-7.01,0-7.01s-4.5,7.01,0,7.01ZM951.89,1227.55c3.02,0,3.02-4.67,0-4.67s-3.02,4.67,0,4.67ZM955.28,1227.55c2.98,0,2.98-4.67,0-4.67s-3.02,4.67,0,4.67ZM967.03,1237.63c3.02,0,3.02-4.66,0-4.66s-3.02,4.66,0,4.66ZM977.1,1232.59c3.02,0,3.02-4.67,0-4.67s-2.98,4.67,0,4.67ZM980.48,1225.87c3.02,0,3.02-4.67,0-4.67s-3.02,4.67,0,4.67ZM988.13,1210.85c.48-1.16-.52-2.58-1.61-2.87-1.37-.35-2.42.46-2.9,1.63-1.13,2.79-2.29,5.58-3.46,8.36-.48,1.16.52,2.58,1.65,2.87,1.33.35,2.38-.45,2.86-1.62,1.17-2.79,2.33-5.58,3.46-8.37h0ZM983.86,1212.41c2.98,0,2.98-4.67,0-4.67s-3.02,4.67,0,4.67ZM970.42,1213.47c-.93.93-.85,2.38,0,3.31.88.93,2.45.86,3.3,0,.56-.57,1.12-1.12,1.69-1.69.92-.92.84-2.37,0-3.3-.85-.93-2.46-.86-3.3,0-.57.56-1.13,1.12-1.69,1.67ZM973.76,1220.82c3.02,0,3.02-4.67,0-4.67s-3.02,4.67,0,4.67ZM982.66,1227.23c2.69,1.34,5.07-2.69,2.37-4.03-2.25-1.12-4.47-2.24-6.72-3.36-2.7-1.35-5.04,2.69-2.38,4.03,2.26,1.12,4.51,2.24,6.73,3.36ZM983.86,1234.27c2.98,0,2.98-4.67,0-4.67s-3.02,4.67,0,4.67ZM977.1,1234.27c3.02,0,3.02-4.67,0-4.67s-2.98,4.67,0,4.67ZM946.86,1239.69c-1.33,0-2.29,1.07-2.33,2.34-.04,1.26,1.12,2.33,2.33,2.33h1.69c1.29,0,2.26-1.06,2.34-2.33.04-1.26-1.13-2.34-2.34-2.34h-1.69ZM946.86,1249.41c3.02,0,3.02-4.68,0-4.68s-3.02,4.68,0,4.68ZM951.89,1259.5c3.02,0,3.02-4.68,0-4.68s-3.02,4.68,0,4.68ZM906.52,1257.81c2.98,0,2.98-4.67,0-4.67s-3.02,4.67,0,4.67ZM931.72,1235.96c3.02,0,3.02-4.67,0-4.67s-2.98,4.67,0,4.67ZM943.48,1281.35c3.02,0,3.02-4.67,0-4.67s-2.98,4.67,0,4.67ZM1019.17,1276.31c2.98,0,2.98-4.67,0-4.67s-3.02,4.67,0,4.67ZM1056.14,1198.96c3.01,0,3.01-4.67,0-4.67s-2.98,4.67,0,4.67ZM993.93,1177.11c3.02,0,3.02-4.67,0-4.67s-2.98,4.67,0,4.67ZM1007.38,1188.87c3.02,0,3.02-4.66,0-4.66s-2.98,4.66,0,4.66ZM1000.65,1204.01c3.02,0,3.02-4.67,0-4.67s-3.02,4.67,0,4.67ZM992.24,1205.69c3.02,0,3.02-4.67,0-4.67s-2.98,4.67,0,4.67ZM983.86,1204.01c2.98,0,2.98-4.67,0-4.67s-3.02,4.67,0,4.67ZM978.79,1202.32c3.02,0,3.02-4.66,0-4.66s-2.98,4.66,0,4.66ZM990.59,1219.15c3.02,0,2.98-4.67,0-4.67s-3.02,4.67,0,4.67ZM962,1194.58c6,0,6-9.35,0-9.35s-6.04,9.35,0,9.35ZM963.65,1174.4c6.04,0,6.04-9.34,0-9.34s-6,9.34,0,9.34ZM962.84,1224.29c2.74,5.35,10.8.63,8.06-4.72-2.34-4.55-3.79-9.44-4.19-14.54-.48-5.96-9.82-6-9.34,0,.56,6.8,2.33,13.17,5.47,19.25ZM977.1,1213.07c6.04,0,6.04-9.33,0-9.33s-6,9.33,0,9.33ZM972.07,1197.94c6.03,0,6.03-9.35,0-9.35s-6,9.35,0,9.35ZM992.2,1186.47c4.3-4.21-2.34-10.81-6.61-6.6-3.14,3.05-4.91,7.34-4.71,11.71.12,2.53,2.06,4.67,4.67,4.67,2.46,0,4.79-2.14,4.67-4.67-.08-2.11.41-3.58,1.98-5.11h0ZM126.14,1263.79c1.49,0,1.49-2.33,0-2.33s-1.53,2.33,0,2.33ZM163.1,1282.85c1.49,0,1.49-2.33,0-2.33s-1.49,2.33,0,2.33ZM183.27,1305.27c1.53,0,1.53-2.33,0-2.33s-1.49,2.33,0,2.33ZM168.69,1314.24c1.53,0,1.53-2.34,0-2.34s-1.49,2.34,0,2.34ZM156.37,1308.63c1.53,0,1.53-2.33,0-2.33s-1.49,2.33,0,2.33ZM197.32,1285.95c.57.28,1.25.15,1.57-.43.32-.51.16-1.31-.4-1.59-.73-.38-1.49-.76-2.26-1.13-.56-.29-1.24-.15-1.57.42-.32.52-.16,1.32.41,1.6.76.38,1.49.75,2.25,1.13ZM212.42,1290.7c1.49,0,1.49-2.33,0-2.33h-3.34c-1.53,0-1.53,2.33,0,2.33h3.34ZM209.08,1303.03c1.49,0,1.49-2.33,0-2.33s-1.53,2.33,0,2.33ZM160.84,1277.25c1.53,0,1.53-2.34,0-2.34s-1.49,2.34,0,2.34ZM135.07,1263.79c1.49,0,1.49-2.33,0-2.33s-1.48,2.33,0,2.33ZM147.4,1262.67c1.53,0,1.53-2.34,0-2.34s-1.49,2.34,0,2.34ZM151.9,1254.82c1.49,0,1.49-2.33,0-2.33s-1.49,2.33,0,2.33ZM140.67,1270.51c1.53,0,1.53-2.34,0-2.34s-1.49,2.34,0,2.34ZM210.17,1257.12c3.01,0,3.01-4.67,0-4.67s-2.98,4.67,0,4.67ZM214.67,1276.17c2.98,0,2.98-4.67,0-4.67s-3.01,4.67,0,4.67ZM186.65,1180.38c4.51,0,4.51-7.01,0-7.01s-4.51,7.01,0,7.01ZM168.13,1198.88c4.51,0,4.51-7.01,0-7.01s-4.47,7.01,0,7.01ZM154.68,1276.22c4.51,0,4.51-7.01,0-7.01s-4.51,7.01,0,7.01ZM174.89,1266.13c4.51,0,4.47-7.01,0-7.01s-4.55,7.01,0,7.01ZM141.23,1216.2c3.02,0,3.02-4.67,0-4.67s-2.97,4.67,0,4.67ZM151.99,1222.3c2.69,1.35,5.03-2.67,2.37-4.04-3.38-1.69-6.72-3.39-10.07-5.08-2.69-1.34-5.07,2.68-2.37,4.04,3.34,1.68,6.72,3.38,10.07,5.08ZM168.94,1210.05c2.89-.82,1.65-5.33-1.25-4.5-7.73,2.23-14.18,7-18.64,13.69-1.69,2.5,2.33,4.84,4.02,2.35,3.79-5.67,9.34-9.65,15.87-11.54ZM153.03,1217.89c2.98,0,2.98-4.67,0-4.67s-3.02,4.67,0,4.67ZM139.54,1207.8c3.02,0,3.02-4.67,0-4.67v4.67ZM147.96,1209.48c1.33,0,2.29-1.06,2.33-2.34.08-1.26-1.08-2.34-2.33-2.34h-1.65c-1.33,0-2.3,1.07-2.34,2.34-.08,1.26,1.09,2.34,2.34,2.34h1.65ZM181.58,1227.45c4.55,0,4.55-6.99,0-6.99s-4.51,6.99,0,6.99ZM166.48,1225.78c4.51,0,4.51-7.01,0-7.01s-4.51,7.01,0,7.01ZM153.03,1227.45c4.51,0,4.51-6.99,0-6.99s-4.51,6.99,0,6.99ZM142.93,1227.45c4.51,0,4.51-6.99,0-6.99s-4.51,6.99,0,6.99ZM141.24,1234.18c.88.05,1.89-.41,2.49-1.02.65-.64,1.01-1.58,1.01-2.48v-1.68c0-.95-.41-1.79-1.01-2.48-.64-.69-1.57-.99-2.49-1.02v8.68ZM139.54,1234.18c4.55,0,4.51-7.01,0-7.01v7.01ZM158.07,1212.33c4.5,0,4.5-7.01,0-7.01s-4.51,7.01,0,7.01ZM156.37,1227.45c4.51,0,4.51-6.99,0-6.99s-4.51,6.99,0,6.99ZM151.34,1237.55c4.51,0,4.51-7,0-7s-4.51,7,0,7ZM139.54,1254.88c3.02,0,3.02-4.67,0-4.67v4.67ZM151.34,1264.96c3.02,0,3.02-4.67,0-4.67s-3.02,4.67,0,4.67ZM161.41,1259.91c3.02,0,3.02-4.66,0-4.66s-2.98,4.66,0,4.66ZM164.79,1253.19c3.02,0,3.02-4.67,0-4.67s-3.02,4.67,0,4.67ZM172.44,1238.17c.48-1.16-.52-2.58-1.65-2.87-1.33-.35-2.38.46-2.86,1.63-1.17,2.78-2.29,5.58-3.46,8.36-.49,1.16.52,2.58,1.65,2.87,1.33.35,2.37-.46,2.86-1.63,1.16-2.78,2.29-5.58,3.46-8.36ZM168.13,1239.74c3.02,0,3.02-4.67,0-4.67s-2.98,4.67,0,4.67ZM154.72,1240.8c-.92.93-.84,2.37,0,3.31.85.93,2.46.86,3.31,0,.56-.56,1.12-1.12,1.69-1.69.92-.92.84-2.37,0-3.29-.85-.94-2.46-.88-3.31,0-.56.55-1.12,1.12-1.69,1.67ZM158.07,1248.15c2.98,0,2.98-4.67,0-4.67s-3.02,4.67,0,4.67ZM166.96,1254.56c2.7,1.33,5.08-2.69,2.38-4.03-2.26-1.12-4.51-2.24-6.73-3.37-2.69-1.34-5.07,2.69-2.37,4.03,2.25,1.13,4.47,2.25,6.72,3.37ZM168.13,1261.6c3.02,0,3.02-4.67,0-4.67s-2.98,4.67,0,4.67ZM161.41,1261.6c3.02,0,3.02-4.67,0-4.67s-2.98,4.67,0,4.67ZM131.17,1267.01c-1.33,0-2.3,1.07-2.34,2.34-.08,1.26,1.09,2.34,2.34,2.34h1.65c1.33,0,2.29-1.07,2.34-2.34.08-1.26-1.09-2.34-2.34-2.34h-1.65ZM131.17,1276.73c3.02,0,2.98-4.67,0-4.67s-3.02,4.67,0,4.67ZM136.2,1286.81c3.02,0,3.02-4.66,0-4.66s-3.02,4.66,0,4.66ZM127.79,1308.68c3.02,0,3.02-4.67,0-4.67s-3.02,4.67,0,4.67ZM203.44,1303.63c3.02,0,3.02-4.67,0-4.67s-2.98,4.67,0,4.67ZM240.44,1226.29c3.02,0,3.02-4.67,0-4.67s-3.02,4.67,0,4.67ZM178.24,1204.43c3.02,0,3.02-4.67,0-4.67s-3.02,4.67,0,4.67ZM191.68,1216.2c3.02,0,3.02-4.67,0-4.67s-3.02,4.67,0,4.67ZM184.96,1231.34c3.02,0,3.02-4.68,0-4.68s-3.02,4.68,0,4.68ZM176.55,1233.02c3.01,0,3.01-4.67,0-4.67s-3.02,4.67,0,4.67ZM168.13,1231.34c3.02,0,3.02-4.68,0-4.68s-2.98,4.68,0,4.68ZM163.1,1229.65c3.02,0,3.02-4.67,0-4.67s-3.02,4.67,0,4.67ZM174.89,1246.46c2.98,0,2.98-4.66,0-4.66s-3.02,4.66,0,4.66ZM146.31,1221.9c6,0,6-9.33,0-9.33s-6.04,9.33,0,9.33ZM147.96,1201.73c6.04,0,6.04-9.35,0-9.35s-6,9.35,0,9.35ZM147.15,1251.61c2.74,5.35,10.79.63,8.06-4.71-2.34-4.55-3.79-9.44-4.19-14.54-.49-5.96-9.83-6-9.34,0,.56,6.8,2.33,13.17,5.47,19.25ZM161.41,1240.39c6.04,0,6.04-9.33,0-9.33s-6,9.33,0,9.33ZM156.37,1225.27c6.04,0,6-9.34,0-9.34s-6,9.34,0,9.34ZM176.5,1213.8c4.27-4.21-2.33-10.81-6.6-6.6-3.14,3.05-4.91,7.34-4.71,11.71.12,2.53,2.05,4.67,4.67,4.67,2.46,0,4.79-2.15,4.67-4.67-.08-2.11.4-3.58,1.97-5.11h0ZM253.09,855.87c1.52.06,1.52-2.27,0-2.34-6.73-.3-13.45-.08-20.18.63-1.49.16-1.49,2.5,0,2.34,6.73-.72,13.45-.93,20.18-.63ZM245.15,863.5c-.8-1.25-2.86-.08-2.01,1.17.77,1.13,1.49,2.25,2.26,3.37.8,1.25,2.85.07,2.01-1.19-.77-1.12-1.49-2.23-2.26-3.35ZM238.79,859.4c1.49-.24.85-2.5-.64-2.25-2.26.36-4.47.73-6.73,1.1-1.49.24-.84,2.49.65,2.25,2.21-.37,4.47-.74,6.72-1.1ZM246.36,879.86c1.49,0,1.49-2.34,0-2.34s-1.53,2.34,0,2.34ZM228.4,897.69c-1.49,0-1.49,2.34,0,2.34h3.39c1.49,0,1.49-2.34,0-2.34h-3.39ZM283.32,898.91c1.53,0,1.53-2.34,0-2.34s-1.49,2.34,0,2.34ZM303.53,921.33c1.49,0,1.49-2.34,0-2.34s-1.53,2.34,0,2.34ZM288.96,930.29c1.49,0,1.49-2.34,0-2.34s-1.53,2.34,0,2.34ZM276.6,924.69c1.53,0,1.53-2.34,0-2.34s-1.49,2.34,0,2.34ZM317.55,902c.56.29,1.24.16,1.61-.42.28-.52.12-1.31-.45-1.59-.72-.38-1.49-.75-2.21-1.12-.56-.29-1.29-.16-1.61.41-.28.53-.16,1.31.44,1.6.73.37,1.49.75,2.22,1.12ZM332.64,906.76c1.53,0,1.53-2.34,0-2.34h-3.34c-1.53,0-1.53,2.34,0,2.34h3.34ZM329.3,919.09c1.49,0,1.49-2.34,0-2.34s-1.53,2.34,0,2.34ZM281.11,893.31c1.49,0,1.49-2.34,0-2.34s-1.53,2.34,0,2.34ZM251.96,874.25c1.49,0,1.49-2.34,0-2.34s-1.49,2.34,0,2.34ZM255.3,879.86c1.53,0,1.53-2.34,0-2.34s-1.49,2.34,0,2.34ZM267.66,878.74c1.49,0,1.49-2.34,0-2.34s-1.53,2.34,0,2.34ZM272.13,870.89c1.49,0,1.49-2.34,0-2.34s-1.49,2.34,0,2.34ZM260.94,886.58c1.49,0,1.49-2.34,0-2.34s-1.53,2.34,0,2.34ZM330.43,873.18c2.98,0,2.98-4.67,0-4.67s-3.02,4.67,0,4.67ZM334.9,892.23c3.02,0,3.02-4.67,0-4.67s-3.02,4.67,0,4.67ZM170.71,860.85c2.98,0,2.98-4.67,0-4.67s-3.02,4.67,0,4.67ZM204.33,870.93c2.98,0,2.98-4.66,0-4.66s-3.02,4.66,0,4.66ZM254.78,803.17c4.51,0,4.47-7,0-7s-4.55,7,0,7ZM306.88,796.45c4.51,0,4.51-7.01,0-7.01s-4.51,7.01,0,7.01ZM288.4,814.94c4.51,0,4.51-7.01,0-7.01s-4.51,7.01,0,7.01ZM248.01,862.01c4.55,0,4.51-7.01,0-7.01s-4.47,7.01,0,7.01ZM232.91,848.56c4.51,0,4.51-7.01,0-7.01s-4.51,7.01,0,7.01ZM207.67,840.16c4.55,0,4.51-7.01,0-7.01s-4.51,7.01,0,7.01ZM226.19,860.34c.93,0,1.77-.41,2.46-1.04.68-.63,1-1.57,1.04-2.47.04-.88-.44-1.87-1.04-2.48-.65-.64-1.58-1.02-2.46-1.02h-1.69c-.97,0-1.81.39-2.5,1.02-.68.63-.96,1.57-1,2.48-.04.87.4,1.87,1,2.47.65.64,1.61,1.04,2.5,1.04h1.69ZM274.95,892.27c4.51,0,4.51-7,0-7s-4.51,7,0,7ZM295.12,882.19c4.51,0,4.51-7.01,0-7.01s-4.51,7.01,0,7.01ZM261.46,832.26c3.02,0,3.02-4.67,0-4.67s-2.98,4.67,0,4.67ZM256.43,832.26c3.02,0,3.02-4.67,0-4.67s-2.98,4.67,0,4.67ZM246.36,835.62c2.98,0,2.98-4.66,0-4.66s-3.02,4.66,0,4.66ZM246.36,840.67c2.98,0,2.98-4.67,0-4.67s-3.02,4.67,0,4.67ZM251.39,842.73c-3.02,0-3.02,4.67,0,4.67,1.98,0,3.99,0,5.96,0-.2-1.54-.4-3.06-.6-4.59-1.29.19-2.7-.28-3.67-1.11-.96-.83-2.37-.95-3.3,0-.84.85-.96,2.48,0,3.31,2.34,2.02,5.16,2.77,8.22,2.3,1.12-.18,1.77-1.52,1.65-2.56-.12-1.14-1.13-2.02-2.3-2.02-1.97,0-3.98,0-5.96,0ZM251.39,849.07c3.02,0,3.02-4.67,0-4.67s-3.02,4.67,0,4.67ZM239.64,864.21c2.98,0,2.98-4.67,0-4.67s-3.02,4.67,0,4.67ZM237.95,835.62c3.02,0,2.98-4.66,0-4.66s-3.02,4.66,0,4.66ZM248.01,833.95c3.02,0,3.02-4.67,0-4.67s-2.98,4.67,0,4.67ZM249.7,827.22c3.02,0,3.02-4.68,0-4.68s-2.98,4.68,0,4.68ZM272.25,838.36c2.66,1.36,5.03-2.67,2.34-4.03-3.35-1.69-6.73-3.39-10.07-5.09-2.7-1.35-5.03,2.68-2.38,4.04,3.39,1.69,6.73,3.39,10.11,5.08ZM289.16,826.11c2.9-.83,1.69-5.33-1.21-4.5-7.77,2.23-14.21,6.98-18.68,13.68-1.69,2.51,2.38,4.85,4.03,2.36,3.78-5.68,9.34-9.65,15.86-11.54ZM273.26,833.95c3.02,0,2.98-4.67,0-4.67s-3.02,4.67,0,4.67ZM259.81,823.86c3.02,0,2.98-4.67,0-4.67s-3.02,4.67,0,4.67ZM268.22,825.54c1.29,0,2.26-1.08,2.34-2.33.04-1.27-1.13-2.34-2.34-2.34h-1.69c-1.33,0-2.29,1.07-2.33,2.34-.08,1.25,1.13,2.33,2.33,2.33h1.69ZM301.84,843.52c4.51,0,4.51-7,0-7s-4.51,7,0,7ZM286.7,841.84c4.51,0,4.51-7.01,0-7.01s-4.5,7.01,0,7.01ZM273.26,843.52c4.51,0,4.51-7,0-7s-4.51,7,0,7ZM263.15,843.52c4.51,0,4.51-7,0-7s-4.51,7,0,7ZM258,846.74c0,.95.36,1.79,1,2.48.65.69,1.57.99,2.46,1.03.89.03,1.89-.42,2.5-1.03.64-.64,1.04-1.58,1.04-2.48v-1.68c0-.95-.4-1.79-1.04-2.47-.65-.7-1.57-.99-2.5-1.04-.85-.03-1.85.43-2.46,1.04-.64.63-1,1.58-1,2.47v1.68ZM259.81,850.25c4.51,0,4.51-7.01,0-7.01s-4.51,7.01,0,7.01ZM248.01,848.56c4.55,0,4.51-7.01,0-7.01s-4.47,7.01,0,7.01ZM256.43,840.16c4.51,0,4.51-7.01,0-7.01s-4.51,7.01,0,7.01ZM278.29,828.39c4.51,0,4.51-7.01,0-7.01s-4.51,7.01,0,7.01ZM276.6,843.52c4.51,0,4.51-7,0-7s-4.51,7,0,7ZM271.57,853.61c4.51,0,4.51-7.01,0-7.01s-4.51,7.01,0,7.01ZM254.78,863.7c4.51,0,4.47-7.01,0-7.01s-4.55,7.01,0,7.01ZM258.12,855.29c4.51,0,4.51-7.01,0-7.01s-4.51,7.01,0,7.01ZM256.43,870.93c3.02,0,3.02-4.66,0-4.66s-2.98,4.66,0,4.66ZM259.81,870.93c3.02,0,2.98-4.66,0-4.66s-3.02,4.66,0,4.66ZM271.57,881.02c3.02,0,3.02-4.67,0-4.67s-3.02,4.67,0,4.67ZM281.67,875.97c2.98,0,2.98-4.67,0-4.67s-3.02,4.67,0,4.67ZM285.01,869.25c3.02,0,3.02-4.67,0-4.67s-3.01,4.67,0,4.67ZM292.66,854.24c.49-1.16-.52-2.59-1.61-2.87-1.32-.36-2.41.45-2.89,1.62-1.13,2.79-2.3,5.58-3.47,8.37-.48,1.17.53,2.58,1.65,2.87,1.33.35,2.38-.46,2.86-1.63,1.17-2.78,2.3-5.58,3.46-8.36ZM288.4,855.81c2.98,0,2.98-4.68,0-4.68s-3.02,4.68,0,4.68ZM274.95,856.86c-.89.92-.85,2.37,0,3.3.88.94,2.46.87,3.3,0,.56-.56,1.13-1.12,1.69-1.68.93-.93.85-2.37,0-3.31-.84-.92-2.41-.86-3.3,0-.56.57-1.13,1.12-1.69,1.69ZM278.29,864.21c3.02,0,3.02-4.67,0-4.67s-2.98,4.67,0,4.67ZM287.19,870.61c2.7,1.35,5.07-2.69,2.37-4.03-2.25-1.12-4.51-2.24-6.72-3.36-2.7-1.35-5.03,2.68-2.38,4.03,2.26,1.12,4.51,2.24,6.73,3.36ZM288.4,877.66c2.98,0,2.98-4.67,0-4.67s-3.02,4.67,0,4.67ZM281.67,877.66c2.98,0,2.98-4.67,0-4.67s-3.02,4.67,0,4.67ZM251.39,883.08c-1.28,0-2.29,1.07-2.33,2.34-.08,1.26,1.13,2.33,2.33,2.33h1.7c1.28,0,2.25-1.07,2.33-2.33.04-1.27-1.13-2.34-2.33-2.34h-1.7ZM251.39,892.79c3.02,0,3.02-4.66,0-4.66s-3.01,4.66,0,4.66ZM256.43,902.88c3.02,0,3.02-4.68,0-4.68s-2.98,4.68,0,4.68ZM211.05,901.2c3.02,0,2.98-4.67,0-4.67s-3.02,4.67,0,4.67ZM236.26,879.34c3.02,0,3.02-4.67,0-4.67s-3.02,4.67,0,4.67ZM248.01,924.73c3.02,0,3.02-4.67,0-4.67s-2.98,4.67,0,4.67ZM323.71,919.69c2.98,0,2.98-4.67,0-4.67s-3.02,4.67,0,4.67ZM360.67,842.35c3.02,0,3.02-4.67,0-4.67s-2.98,4.67,0,4.67ZM298.46,820.5c3.02,0,3.02-4.68,0-4.68s-2.98,4.68,0,4.68ZM311.91,832.26c3.02,0,3.02-4.67,0-4.67s-2.98,4.67,0,4.67ZM305.19,847.4c3.02,0,3.02-4.67,0-4.67s-2.98,4.67,0,4.67ZM296.77,849.07c3.02,0,3.02-4.67,0-4.67s-2.98,4.67,0,4.67ZM288.4,847.4c2.98,0,2.98-4.67,0-4.67s-3.02,4.67,0,4.67ZM283.32,845.71c3.02,0,3.02-4.67,0-4.67s-2.98,4.67,0,4.67ZM295.12,862.53c2.98,0,2.98-4.68,0-4.68s-3.02,4.68,0,4.68ZM266.53,837.96c6,0,6-9.34,0-9.34s-6,9.34,0,9.34ZM268.22,817.79c6,0,6-9.35,0-9.35s-6.04,9.35,0,9.35ZM267.38,867.68c2.74,5.35,10.83.62,8.09-4.72-2.37-4.54-3.78-9.44-4.23-14.54-.48-5.96-9.82-5.99-9.34,0,.57,6.81,2.38,13.18,5.48,19.26ZM281.67,856.45c6,0,6-9.34,0-9.34s-6.04,9.34,0,9.34ZM276.6,841.32c6.04,0,6.04-9.33,0-9.33s-6,9.33,0,9.33ZM296.73,829.86c4.31-4.21-2.3-10.81-6.6-6.6-3.14,3.05-4.92,7.34-4.71,11.71.12,2.53,2.05,4.67,4.67,4.67,2.45,0,4.79-2.15,4.67-4.67-.08-2.11.4-3.58,1.97-5.11h0ZM364.41,1603.55c1.73.08,1.69-2.56,0-2.63-7.61-.33-15.18-.1-22.75.72-1.69.17-1.69,2.81,0,2.63,7.57-.82,15.14-1.06,22.75-.72ZM355.47,1612.16c-.92-1.4-3.22-.09-2.25,1.33.8,1.27,1.65,2.53,2.49,3.8.97,1.41,3.23.08,2.3-1.33-.85-1.26-1.69-2.53-2.54-3.8ZM348.27,1607.54c1.65-.28.96-2.82-.73-2.54-2.49.42-5.03.83-7.57,1.25-1.69.27-.96,2.81.69,2.54,2.53-.42,5.07-.83,7.61-1.25h0ZM356.8,1630.62c1.69,0,1.69-2.64,0-2.64s-1.69,2.64,0,2.64ZM336.59,1650.76c-1.73,0-1.73,2.64,0,2.64h3.78c1.7,0,1.7-2.64,0-2.64h-3.78ZM398.55,1652.13c1.7,0,1.7-2.63,0-2.63s-1.69,2.63,0,2.63ZM421.3,1677.43c1.69,0,1.69-2.63,0-2.63s-1.69,2.63,0,2.63ZM404.88,1687.55c1.69,0,1.69-2.64,0-2.64s-1.69,2.64,0,2.64ZM390.95,1681.23c1.73,0,1.73-2.64,0-2.64s-1.7,2.64,0,2.64ZM437.17,1655.62c.64.32,1.41.17,1.81-.48.32-.58.16-1.48-.48-1.79-.85-.43-1.7-.85-2.54-1.28-.64-.32-1.41-.17-1.81.48-.33.59-.16,1.48.48,1.8.85.43,1.69.84,2.54,1.27ZM454.2,1660.98c1.69,0,1.69-2.63,0-2.63h-3.79c-1.69,0-1.69,2.63,0,2.63h3.79ZM450.41,1674.9c1.69,0,1.69-2.63,0-2.63s-1.69,2.63,0,2.63ZM396.02,1645.8c1.69,0,1.69-2.63,0-2.63s-1.69,2.63,0,2.63ZM363.12,1624.3c1.73,0,1.69-2.64,0-2.64s-1.69,2.64,0,2.64ZM366.91,1630.62c1.73,0,1.73-2.64,0-2.64s-1.69,2.64,0,2.64ZM380.84,1629.36c1.69,0,1.69-2.63,0-2.63s-1.69,2.63,0,2.63ZM385.91,1620.51c1.69,0,1.69-2.63,0-2.63s-1.69,2.63,0,2.63ZM373.27,1638.22c1.69,0,1.69-2.63,0-2.63s-1.73,2.63,0,2.63ZM451.66,1623.09c3.42,0,3.42-5.27,0-5.27s-3.38,5.27,0,5.27ZM456.74,1644.6c3.38,0,3.38-5.27,0-5.27s-3.39,5.27,0,5.27ZM271.44,1609.17c3.39,0,3.39-5.27,0-5.27s-3.42,5.27,0,5.27ZM309.37,1620.55c3.38,0,3.38-5.27,0-5.27s-3.38,5.27,0,5.27ZM366.3,1544.08c5.08,0,5.08-7.9,0-7.9s-5.07,7.9,0,7.9ZM425.13,1536.5c5.07,0,5.07-7.92,0-7.92s-5.11,7.92,0,7.92ZM404.23,1557.36c5.12,0,5.12-7.9,0-7.9s-5.07,7.9,0,7.9ZM358.69,1610.5c5.12,0,5.12-7.9,0-7.9s-5.07,7.9,0,7.9ZM341.62,1595.32c5.12,0,5.08-7.9,0-7.9s-5.07,7.9,0,7.9ZM313.16,1585.82c5.11,0,5.11-7.9,0-7.9s-5.08,7.9,0,7.9ZM334.05,1608.6c1.05,0,2.02-.45,2.78-1.16.77-.7,1.13-1.77,1.17-2.79.04-.98-.48-2.1-1.17-2.79-.72-.71-1.77-1.15-2.78-1.15h-1.89c-1.09,0-2.01.45-2.82,1.15-.76.72-1.08,1.78-1.16,2.79-.04.99.48,2.11,1.16,2.79.73.73,1.77,1.16,2.82,1.16h1.89ZM389.05,1644.65c5.12,0,5.12-7.91,0-7.91s-5.07,7.91,0,7.91ZM411.84,1633.26c5.08,0,5.08-7.9,0-7.9s-5.11,7.9,0,7.9ZM373.87,1576.92c3.43,0,3.39-5.27,0-5.27s-3.38,5.27,0,5.27ZM368.2,1576.92c3.38,0,3.38-5.27,0-5.27s-3.39,5.27,0,5.27ZM356.8,1580.71c3.42,0,3.38-5.27,0-5.27s-3.38,5.27,0,5.27ZM356.8,1586.41c3.42,0,3.38-5.27,0-5.27s-3.38,5.27,0,5.27ZM362.52,1588.73c-3.42,0-3.42,5.28,0,5.27,2.21,0,4.47,0,6.72,0-.24-1.73-.48-3.45-.72-5.17-1.45.22-3.02-.31-4.11-1.25s-2.66-1.07-3.74,0c-.97.95-1.09,2.8,0,3.72,2.65,2.29,5.8,3.14,9.26,2.6,1.33-.19,2.05-1.72,1.89-2.89-.16-1.28-1.29-2.28-2.58-2.28-2.25,0-4.51.01-6.72.01h0ZM362.52,1595.89c3.38,0,3.38-5.27,0-5.27s-3.42,5.27,0,5.27ZM349.23,1612.97c3.38,0,3.38-5.27,0-5.27s-3.42,5.27,0,5.27ZM347.34,1580.71c3.38,0,3.38-5.27,0-5.27s-3.42,5.27,0,5.27ZM358.69,1578.81c3.43,0,3.39-5.27,0-5.27s-3.38,5.27,0,5.27ZM360.59,1571.23c3.42,0,3.42-5.27,0-5.27s-3.39,5.27,0,5.27ZM385.99,1583.81c3.02,1.53,5.72-3.02,2.66-4.55-3.78-1.91-7.57-3.82-11.35-5.74-3.02-1.53-5.68,3.01-2.66,4.55,3.78,1.91,7.57,3.83,11.35,5.74ZM405.16,1569.97c3.26-.93,1.85-6.01-1.41-5.08-8.74,2.51-16.03,7.88-21.06,15.45-1.89,2.83,2.66,5.46,4.55,2.66,4.27-6.4,10.51-10.9,17.92-13.03ZM387.16,1578.81c3.42,0,3.38-5.27,0-5.27s-3.38,5.27,0,5.27ZM371.98,1567.43c3.42,0,3.38-5.27,0-5.27s-3.38,5.27,0,5.27ZM381.48,1569.33c1.45,0,2.58-1.2,2.62-2.63.08-1.43-1.25-2.63-2.62-2.63h-1.89c-1.49,0-2.58,1.2-2.66,2.63-.04,1.42,1.29,2.63,2.66,2.63h1.89ZM419.41,1589.62c5.11,0,5.11-7.9,0-7.9s-5.07,7.9,0,7.9ZM402.34,1587.72c5.11,0,5.07-7.91,0-7.91s-5.07,7.91,0,7.91ZM387.16,1589.62c5.11,0,5.07-7.9,0-7.9s-5.07,7.9,0,7.9ZM375.77,1589.62c5.11,0,5.11-7.9,0-7.9s-5.08,7.9,0,7.9ZM369.93,1593.26c0,1.08.44,2.03,1.16,2.79.73.78,1.78,1.11,2.78,1.16,1.01.04,2.14-.48,2.82-1.16.73-.72,1.17-1.78,1.17-2.79v-1.9c0-1.07-.48-2.02-1.17-2.79-.72-.78-1.77-1.11-2.82-1.15-.96-.06-2.09.47-2.78,1.15-.72.71-1.16,1.78-1.16,2.79v1.9ZM371.98,1597.21c5.11,0,5.07-7.9,0-7.9s-5.07,7.9,0,7.9ZM358.69,1595.32c5.12,0,5.12-7.9,0-7.9s-5.07,7.9,0,7.9ZM368.2,1585.82c5.07,0,5.07-7.9,0-7.9s-5.08,7.9,0,7.9ZM392.88,1572.54c5.07,0,5.07-7.9,0-7.9s-5.12,7.9,0,7.9ZM390.94,1589.62c5.12,0,5.12-7.9,0-7.9s-5.07,7.9,0,7.9ZM385.27,1601c5.11,0,5.07-7.9,0-7.9s-5.08,7.9,0,7.9ZM366.3,1612.39c5.08,0,5.08-7.9,0-7.9s-5.07,7.9,0,7.9ZM370.09,1602.9c5.11,0,5.07-7.9,0-7.9s-5.08,7.9,0,7.9ZM368.2,1620.55c3.38,0,3.38-5.27,0-5.27s-3.39,5.27,0,5.27ZM371.98,1620.55c3.42,0,3.38-5.27,0-5.27s-3.38,5.27,0,5.27ZM385.27,1631.94c3.38,0,3.38-5.27,0-5.27s-3.39,5.27,0,5.27ZM396.66,1626.25c3.38,0,3.38-5.27,0-5.27s-3.38,5.27,0,5.27ZM400.45,1618.67c3.38,0,3.38-5.27,0-5.27s-3.39,5.27,0,5.27ZM409.06,1601.71c.57-1.31-.56-2.91-1.81-3.24-1.49-.4-2.7.51-3.26,1.84-1.29,3.14-2.62,6.29-3.91,9.45-.52,1.31.61,2.91,1.85,3.23,1.49.39,2.7-.52,3.27-1.84,1.28-3.15,2.57-6.29,3.86-9.44h0ZM404.23,1603.49c3.42,0,3.38-5.27,0-5.27s-3.38,5.27,0,5.27ZM389.09,1604.68c-1.05,1.03-.97,2.67,0,3.72.97,1.05,2.74.97,3.75,0,.6-.63,1.24-1.27,1.89-1.9,1.05-1.05.96-2.68,0-3.72-.97-1.06-2.74-.98-3.75,0-.6.63-1.24,1.26-1.89,1.9ZM392.88,1612.97c3.38,0,3.38-5.27,0-5.27s-3.43,5.27,0,5.27ZM402.9,1620.2c3.06,1.52,5.72-3.04,2.66-4.55-2.5-1.26-5.03-2.53-7.57-3.8-3.02-1.51-5.72,3.04-2.66,4.55,2.54,1.27,5.08,2.53,7.57,3.8ZM404.23,1628.15c3.42,0,3.38-5.27,0-5.27s-3.38,5.27,0,5.27ZM396.66,1628.15c3.38,0,3.38-5.27,0-5.27s-3.38,5.27,0,5.27ZM362.52,1634.26c-1.49,0-2.58,1.21-2.66,2.63-.04,1.43,1.25,2.64,2.66,2.64h1.89c1.45,0,2.58-1.2,2.62-2.64.08-1.42-1.25-2.63-2.62-2.63h-1.89ZM362.52,1645.23c3.38,0,3.38-5.27,0-5.27s-3.43,5.27,0,5.27ZM368.19,1656.61c3.39,0,3.39-5.27,0-5.27s-3.38,5.27,0,5.27ZM316.98,1654.71c3.38,0,3.38-5.27,0-5.27s-3.42,5.27,0,5.27ZM345.41,1630.05c3.42,0,3.42-5.27,0-5.27s-3.39,5.27,0,5.27ZM358.69,1681.28c3.42,0,3.38-5.27,0-5.27s-3.38,5.27,0,5.27ZM444.09,1675.58c3.38,0,3.38-5.27,0-5.27s-3.38,5.27,0,5.27ZM485.84,1588.31c3.39,0,3.39-5.27,0-5.27s-3.42,5.27,0,5.27ZM415.62,1563.64c3.39,0,3.39-5.27,0-5.27s-3.38,5.27,0,5.27ZM430.8,1576.92c3.39,0,3.39-5.27,0-5.27s-3.38,5.27,0,5.27ZM423.19,1593.99c3.43,0,3.43-5.27,0-5.27s-3.38,5.27,0,5.27ZM413.73,1595.89c3.38,0,3.38-5.27,0-5.27s-3.38,5.27,0,5.27ZM404.23,1593.99c3.42,0,3.38-5.27,0-5.27s-3.38,5.27,0,5.27ZM398.55,1592.1c3.38,0,3.38-5.27,0-5.27s-3.38,5.27,0,5.27ZM411.84,1611.07c3.38,0,3.38-5.27,0-5.27s-3.38,5.27,0,5.27ZM379.59,1583.35c6.76,0,6.76-10.54,0-10.54s-6.81,10.54,0,10.54ZM381.48,1560.59c6.81,0,6.76-10.55,0-10.55s-6.8,10.55,0,10.55ZM380.55,1616.88c3.1,6.04,12.2.71,9.1-5.32-2.65-5.13-4.26-10.66-4.75-16.41-.56-6.73-11.11-6.76-10.55,0,.65,7.68,2.66,14.87,6.2,21.73h0ZM396.66,1604.22c6.8,0,6.76-10.54,0-10.54s-6.8,10.54,0,10.54ZM390.94,1587.14c6.81,0,6.81-10.54,0-10.54s-6.76,10.54,0,10.54ZM413.65,1574.21c4.87-4.76-2.62-12.2-7.45-7.46-3.5,3.45-5.51,8.29-5.27,13.23.08,2.85,2.29,5.27,5.23,5.27,2.78,0,5.4-2.42,5.28-5.27-.08-2.38.44-4.04,2.21-5.77ZM222.76,1807.21c-1.93.27-3.78.53-5.67.8,1.61,1.62,3.22,3.23,4.83,4.85,3.26,3.23,16.99,9.43,41.27,18.6,24.24,9.16,38.53,13.47,42.84,12.93,2.13-.27,4.31-.53,6.44-.81-1.05-1.33-2.13-2.69-3.22-4.03-2.14-2.7-16.19-8.91-42.04-18.6-25.89-9.71-40.7-14.28-44.45-13.74h0ZM475.01,1773.25c-4.87.54-7.81,1.89-8.9,4.04-1.08,2.15-.8,3.76.81,4.85,1.61,1.08,6.48,1.89,14.57,2.42,8.06.54,15.34,1.89,21.79,4.04,6.48,2.15,11.63,3.23,15.38,3.23s6.72-.8,8.89-2.41c1.09-.82,2.14-1.63,3.23-2.43-.81-1.09-1.61-2.16-2.42-3.24-1.61-2.14-9.7-4.57-24.24-7.27-14.57-2.69-24.28-3.78-29.11-3.23h0ZM690.9,1717.45c-1.08.82-2.17,1.62-3.26,2.43-2.17,1.62-4.83,12.67-8.09,33.15-3.22,20.49-6.73,38.01-10.51,52.56-3.78,14.56-5.39,23.99-4.83,28.3.24,2.15.52,4.31.8,6.47,1.09-1.08,2.14-2.16,3.23-3.23,2.17-2.17,5.39-12.95,9.7-32.35,4.31-19.4,7.81-36.38,10.51-50.93,2.7-14.56,3.78-24.26,3.22-29.11-.24-2.43-.52-4.85-.77-7.29h0ZM139.46,1659.24c0,10.78-.28,18.06-.81,21.83-.56,3.78-1.37,5.65-2.41,5.65h-1.65c.84-7.26,1.65-14.55,2.45-21.84.81-7.26,1.61-14.55,2.42-21.81v16.16ZM187.98,1607.5c-.81,1.08-1.61,2.15-2.42,3.23-1.65,2.17-2.42,7.55-2.42,16.18s.53,13.47,1.61,14.55c.53.53,1.05,1.07,1.61,1.62.81-.82,1.62-1.62,2.42-2.43,1.61-1.62,2.42-6.74,2.42-15.36s-.53-13.75-1.61-15.36c-.53-.82-1.09-1.62-1.61-2.43ZM322.17,1430.43c-2.13.54-2.94,2.96-2.41,7.28.56,4.32,7.29,8.62,20.21,12.94,12.92,4.32,24.8,7.29,35.59,8.9,10.75,1.62,22.07,2.42,33.94,2.42s21.3-.8,28.31-2.42c7.01-1.61,10.79-3.51,11.31-5.67.57-2.15.29-4.59-.8-7.28s-10.23-3.24-27.5-1.61c-17.23,1.61-33.14,1.07-47.71-1.63-14.54-2.69-26.13-5.65-34.75-8.89s-14.01-4.59-16.19-4.04ZM949.59,1403.75c-1.08,0-2.13,4.03-3.22,12.12-1.08,8.08-3.5,16.17-7.28,24.25-3.75,8.1-5.64,14.02-5.64,17.8s.52,6.2,1.61,7.26c.52.54,1.09,1.09,1.61,1.62,1.37-1.62,2.7-3.23,4.07-4.85,2.65-3.23,5.91-10.51,9.66-21.84,3.78-11.32,5.68-18.86,5.68-22.64s-.81-7.01-2.42-9.7c-1.61-2.7-2.98-4.03-4.07-4.03h0ZM260.73,1391.63c-2.13.53-2.94,2.96-2.41,7.28.52,4.31,2.69,8.35,6.48,12.13,3.74,3.78,8.33,7.01,13.73,9.69,2.7,1.36,5.39,2.7,8.09,4.06v-7.29c0-4.85-2.7-8.88-8.09-12.12-5.4-3.25-9.14-6.47-11.32-9.71-2.17-3.23-4.3-4.59-6.48-4.04h0ZM699.76,1402.94c3.5,4.04,7.01,8.08,10.51,12.13-3.5-4.04-7.01-8.09-10.51-12.13-3.5-4.04-7-8.09-10.51-12.13,3.51,4.04,7.01,8.08,10.51,12.13ZM205.77,1393.24c8.62,17.79,8.86,40.97.81,69.53-8.09,28.58-13.77,52.56-16.99,71.96-3.22,19.4-4.83,31.81-4.83,37.19s.52,8.89,1.61,10.52c.52.8,1.04,1.61,1.61,2.42.8-.55,1.61-1.08,2.41-1.62,1.61-1.07,4.59-15.9,8.9-44.47,4.31-28.57,9.7-54.17,16.19-76.81,3.22-11.32,6.44-22.64,9.7-33.95,9.14,9.96,18.32,19.93,27.46,29.92,18.36,19.93,32.09,33.42,41.27,40.42,9.14,7.01,23.15,15.1,42.03,24.26,18.85,9.16,33.14,14.82,42.84,16.98,9.71,2.16,15.38,14.02,16.99,35.58,1.61,21.57,2.42,46.35,2.42,74.39s-1.61,54.71-4.83,80.04c-3.26,25.33-5.16,39.08-5.68,41.24-.52,2.15-6.48,5.93-17.8,11.32-11.31,5.39-21.25,12.94-29.91,22.63-8.62,9.71-14.82,20.48-18.6,32.35-3.79,11.85-5.4,23.17-4.83,33.95.52,10.78-1.09,16.97-4.88,18.59-3.74,1.61-9.42,2.97-16.95,4.04-7.57,1.09-24.56,1.62-50.93,1.62s-43.69-.53-51.78-1.62c-8.09-1.08-22.34-4.58-42.84-10.52-20.49-5.92-39.34-13.74-56.61-23.43-17.23-9.71-28.83-17.52-34.75-23.46-5.95-5.93-10.79-12.13-14.57-18.59-3.74-6.47-5.64-10.24-5.64-11.32s1.61-2.42,4.83-4.04c3.27-1.61,16.47-2.97,39.62-4.04,23.2-1.09,46.91.27,71.15,4.04,24.28,3.78,38.57,5.65,42.88,5.65s6.72-.8,7.25-2.42c.56-1.61.28-2.97-.81-4.04-1.09-1.08-16.71-3.77-46.86-8.09-30.2-4.32-52.02-6.46-65.51-6.46s-26.42,1.08-38.82,3.23c-6.2,1.08-12.4,2.15-18.6,3.23v-13.75c0-9.15,2.18-18.33,6.48-27.49,4.31-9.16,9.43-16.44,15.34-21.82,5.96-5.4,13.21-9.97,21.87-13.75,8.61-3.76,18.04-7,28.26-9.7,10.27-2.7,21.3-4.05,33.18-4.05s25.89,1.89,42.03,5.66c16.19,3.78,29.11,8.35,38.82,13.74,9.7,5.4,15.62,8.1,17.79,8.1h3.22c-.8-2.17-1.61-4.31-2.41-6.46-1.61-4.32-7.29-9.16-16.99-14.56-9.71-5.39-24.52-10.24-44.45-14.56-19.93-4.3-28.31-30.99-25.09-80.04,3.22-49.04,8.62-95.67,16.19-139.87,7.53-44.19,13.2-73.04,16.95-86.52,3.78-13.46,6.2-20.48,7.29-21.01.56-.27,1.08-.55,1.61-.81,4.35,8.9,8.61,17.78,12.96,26.68h0ZM371.5,1284.08c33.98,4.31,63.37,9.44,88.13,15.36,24.8,5.93,52.55,14.29,83.27,25.07,30.76,10.78,58.22,21.83,82.5,33.15,24.23,11.32,39.05,26.41,44.45,45.28,5.39,18.87,9.7,37.99,12.96,57.4,3.22,19.4,5.36,34.51,6.44,45.29,1.09,10.77,1.65,39.61,1.65,86.51v70.35h2.42c1.61,0,2.94-1.35,4.03-4.05,1.08-2.69,1.61-25.06,1.61-67.1s-1.09-73.31-3.22-93.79c-2.18-20.47-5.92-42.85-11.32-67.1-2.7-12.13-5.39-24.26-8.09-36.38,4.83,5.12,9.7,10.24,14.57,15.36,9.67,10.25,16.95,19.14,21.83,26.69,4.83,7.54,9.94,20.21,15.34,37.99,5.39,17.79,8.61,37.73,9.7,59.83,1.09,22.1,1.89,60.91,2.42,116.43.56,55.52-.25,97.85-2.42,126.94-2.13,29.11-4.59,49.86-7.29,62.26-2.7,12.4-7,23.18-12.92,32.33-5.92,9.17-14.3,12.14-25.05,8.91-10.79-3.24-26.69-5.12-47.71-5.66-21.01-.55-44.73,1.08-71.14,4.84-26.46,3.79-43.97,6.75-52.59,8.91-8.61,2.14-14.53,4.31-17.79,6.46-3.22,2.15-4.83,4.03-4.83,5.66v2.42h6.48c4.31,0,11.31-1.62,21.02-4.85,9.7-3.23,19.69-5.65,29.91-7.28,10.23-1.61,31.25-2.69,63.05-3.23,31.81-.53,52.31.82,61.45,4.05,4.59,1.61,9.18,3.23,13.77,4.84-2.7,2.16-5.4,4.32-8.1,6.48-5.39,4.31-13.2,8.62-23.47,12.93-10.23,4.32-27.18,8.91-50.93,13.75-23.72,4.85-43.93,8.09-60.64,9.71-16.71,1.62-39.62,2.7-68.73,3.23-29.11.53-54.43-.81-75.98-4.04-21.58-3.24-35.87-6.47-42.84-9.71-7.04-3.23-11.59-6.2-13.77-8.88-1.04-1.35-2.13-2.7-3.22-4.05,2.42.82,4.83,1.62,7.29,2.43,4.83,1.62,11.84,2.69,21.02,3.23,9.14.54,24.24-1.08,45.25-4.84,21.02-3.79,33.42-6.75,37.21-8.9,3.78-2.15,5.39-4.04,4.87-5.68-.56-1.6-12.4-.27-35.59,4.05-23.19,4.31-37.73,6.46-43.65,6.46s-11.07-.53-15.38-1.61c-4.31-1.09-8.37-2.97-12.12-5.65-3.78-2.7-7.57-3.79-11.31-3.25-3.79.56-6.2.29-7.29-.8-1.09-1.08-2.7-4.58-4.87-10.52-2.14-5.92-3.22-13.19-3.22-21.82s1.08-15.89,3.22-21.82c2.17-5.94,6.2-12.4,12.16-19.4,5.92-7.01,15.06-13.75,27.46-20.22,12.4-6.46,29.67-11.05,51.78-13.74,22.06-2.7,33.41-7.27,33.94-13.75.52-6.46.28-10.52-.81-12.13-1.08-1.62-9.18-2.15-24.24-1.62-7.56.28-15.13.55-22.66.82,2.17-22.1,4.3-44.2,6.48-66.3,4.31-44.19,9.98-80.85,16.95-109.96,7.05-29.11,25.08-79.78,25.89-82.46,1.61-5.4,5.92-14.56,12.92-27.5,7.01-12.94,15.67-25.6,25.89-38,5.12-6.19,10.23-12.38,15.38-18.58-1.65-.56-3.26-1.09-4.87-1.62-3.22-1.08-7.29,1.07-12.12,6.47-4.87,5.38-10.79,12.94-17.79,22.64-7.01,9.7-15.1,23.44-24.24,41.23-9.18,17.79-19.69,26.69-31.57,26.69s-23.96-1.34-36.36-4.05c-12.4-2.69-26.41-7.55-42.03-14.56-15.66-7-28.59-14.01-38.82-21.01-10.26-7.02-22.66-17.52-37.2-31.54-14.57-14.02-27.5-29.1-38.81-45.27-11.32-16.17-19.41-29.39-24.24-39.61-4.87-10.25-9.99-25.35-15.38-45.28-2.7-9.97-5.4-19.95-8.09-29.92,11.07-1.89,22.1-3.78,33.13-5.67,22.11-3.76,45.3-5.65,69.54-5.65s53.39,2.15,87.33,6.46h0ZM960.95,1229.11c6.44,20.48,11.55,40.69,15.34,60.64,3.78,19.95,7,39.35,9.7,58.22,2.7,18.85,3.79,36.65,3.22,53.35-.52,16.71-3.5,32.34-8.89,46.9-5.4,14.55-11.04,24.79-16.96,30.72-5.95,5.92-14.29,10.78-25.08,14.55-10.75,3.78-22.91,5.65-36.4,5.65s-26.13-2.68-37.97-8.07c-11.87-5.39-25.32-15.9-40.42-31.53-15.1-15.63-28.59-33.97-40.42-54.99-11.88-21.01-21.02-40.15-27.5-57.4-6.49-17.25-10.27-29.65-11.32-37.19-.56-3.77-1.08-7.55-1.61-11.31h4.03c2.7,0,7-2.16,12.92-6.48,5.92-4.31,12.4-10.51,19.41-18.59,7.01-8.08,16.99-16.44,29.92-25.07,12.96-8.62,33.41-17.51,61.44-26.68,14.01-4.59,28.06-9.16,42.07-13.75,3.5,11.6,7.01,23.18,10.51,34.78,7.01,23.17,12.64,47.97,16.95,74.38,4.31,26.41,7.01,40.97,8.09,43.66,1.09,2.69,2.42,4.31,4.07,4.86.81.27,1.61.53,2.42.81.24-1.08.52-2.15.8-3.24.53-2.15-1.33-15.35-5.68-39.62-4.3-24.26-8.85-45.82-13.73-64.68-4.87-18.86-8.61-31.26-11.31-37.19-2.7-5.93-3.5-10.24-2.41-12.94,1.04-2.7,6.16-5.12,15.34-7.28,9.18-2.15,16.99,7.01,23.47,27.49h0ZM237.3,1154.72c-1.61,0-2.7,1.08-3.22,3.25-.57,2.15-1.37,11.32-2.46,27.49-.52,8.09-1.09,16.17-1.61,24.26,1.09-1.08,2.14-2.15,3.22-3.24,2.18-2.15,4.07-9.16,5.68-21.01,1.61-11.86,2.17-19.95,1.61-24.26-.52-4.32-1.61-6.47-3.22-6.47ZM174.21,1119.95c-2.7,9.16-5.36,23.99-8.06,44.47-1.37,10.24-2.69,20.48-4.06,30.72.28-6.47.56-12.94.8-19.4.57-12.94,3.26-27.75,8.1-44.47,2.45-8.35,4.87-16.7,7.28-25.06-1.37,4.59-2.69,9.16-4.06,13.75ZM196.87,1060.13c-2.69,9.16-6.48,18.86-11.31,29.11-2.42,5.12-4.87,10.24-7.29,15.36,3.79-9.71,7.53-19.4,11.32-29.11,3.78-9.71,7.57-19.4,11.31-29.11-1.33,4.59-2.7,9.16-4.03,13.75ZM671.46,1044.77c-.81.8-1.61,1.61-2.42,2.42-1.61,1.62-.8,7.54,2.42,17.79,3.26,10.24,4.59,17.25,4.06,21.01-.52,3.78-.28,6.74.81,8.9,1.08,2.15,2.41,3.23,4.02,3.23h2.46v-9.7c0-6.47-1.89-15.36-5.68-26.69-1.89-5.65-3.78-11.32-5.67-16.97ZM419.21,966.33c6.48,2.7,17.27,5.39,32.33,8.09,15.1,2.7,33.18,7.27,54.19,13.75l31.53,9.69c-11.6.55-23.19,1.08-34.79,1.62-23.15,1.08-38.25.81-45.25-.8-7.01-1.63-14.82-5.13-23.44-10.51-8.65-5.4-14.81-11.05-18.6-16.99-1.89-2.96-3.78-5.92-5.68-8.89,3.27,1.34,6.49,2.7,9.71,4.04ZM789.51,936.41h-3.22c-2.18,0-6.49,1.89-12.93,5.67-6.48,3.77-10.79,7.27-12.96,10.5-2.14,3.25-2.94,5.67-2.42,7.29.53,1.61,2.42,2.15,5.68,1.61,3.22-.54,7.81-2.69,13.73-6.47,5.92-3.77,9.42-7.81,10.51-12.12.52-2.16,1.08-4.31,1.61-6.48h0ZM331.88,929.14c2.17,5.93.28,11.59-5.64,16.98-5.92,5.39-14.29,15.36-25.08,29.92-10.79,14.55-22.11,33.68-33.95,57.39-11.87,23.73-18.88,38.82-21.01,45.29-2.18,6.47-2.7,11.86-1.61,16.17,1.04,4.31,2.13,6.47,3.22,6.47s3.78-6.21,8.09-18.6c4.31-12.4,12.64-30.19,25.04-53.37,12.4-23.16,24-41.22,34.79-54.16,5.4-6.48,10.79-12.94,16.15-19.4v16.97c0,11.32.56,17.79,1.61,19.41,1.08,1.61,2.45,2.42,4.06,2.42s5.68-8.89,12.12-26.67c6.49-17.8,11.32-26.7,14.54-26.7s7.29,1.63,12.16,4.86c4.83,3.23,9.7,9.43,14.53,18.59,4.88,9.18,11.88,17.79,21.02,25.88,9.18,8.09,19.13,14.55,29.92,19.4,10.79,4.86,21.01,8.35,30.72,10.52,9.7,2.15,22.38,3.23,38.01,3.23s29.39-1.89,41.22-5.66c11.88-3.78,20.78-5.66,26.7-5.66s16.47-2.43,28.3-.81c11.84,1.61,27.5,2.16,46.91,1.61,19.41-.53,29.35,0,29.92,1.63.52,1.62,4.55,1.88,12.12.8,7.52-1.07,17.79-1.35,30.72-.8,12.92.54,22.1,0,27.5-1.63,5.39-1.61,12.64-6.73,21.82-15.36,9.18-8.61,15.1-13.47,17.79-14.54,1.33-.55,2.7-1.08,4.03-1.63-.28,12.41-.52,24.8-.8,37.2-.53,24.79,0,38.54,1.61,41.23,1.61,2.69,3.78,3.77,6.48,3.23,2.7-.55,5.11-3.23,7.25-8.09,2.17-4.85,3.54-19.67,4.06-44.47.53-24.8,1.33-38.8,2.42-42.05,1.09-3.23,3.26-6.19,6.48-8.88,1.61-1.36,3.22-2.7,4.83-4.04,11.32,16.17,22.63,32.34,33.98,48.51,22.63,32.34,37.45,54.71,44.46,67.1,7,12.39,13.48,25.6,19.4,39.61,5.92,14.02,10.79,29.11,14.58,45.28,1.85,8.09,3.74,16.17,5.63,24.26-10.79,2.7-21.54,5.39-32.33,8.08-21.58,5.39-41.51,11.32-59.83,17.79-18.32,6.47-34.22,13.75-47.71,21.83-13.49,8.08-25.04,17.25-34.75,27.49-9.7,10.24-17.79,17.25-24.28,21.03-6.44,3.77-10.79,5.12-12.92,4.04-2.17-1.08-4.83-11.05-8.09-29.91-3.22-18.87-4.59-31.81-4.03-38.81.52-7.01.28-11.58-.8-13.74-1.09-2.17-2.98-3.51-5.68-4.05-1.33-.27-2.7-.53-4.03-.8-.28,3.5-.56,7.01-.8,10.5-.57,7.01,2.94,31.81,10.51,74.39,7.52,42.58,10.75,68.73,9.7,78.42-1.09,9.71-3.26,15.64-6.48,17.78-3.22,2.16-5.68,4.85-7.29,8.08-1.61,3.25-25.33-5.65-71.15-26.67-45.82-21.03-82.74-36.39-110.76-46.09-28.02-9.7-52.83-17.25-74.41-22.64-21.54-5.39-52.54-10.77-92.96-16.17-40.43-5.39-71.95-8.08-94.58-8.08s-43.41,1.34-62.29,4.03c-9.42,1.35-18.84,2.7-28.26,4.04.24-11.32.52-22.63.8-33.95.52-22.63,1.85-43.66,4.03-63.06,2.17-19.41,5.11-37.74,8.9-54.99,3.78-17.25,8.09-32.61,12.92-46.08,4.87-13.48,10.79-26.95,17.8-40.42,7-13.49,14.57-25.88,22.66-37.2,8.06-11.32,19.65-25.07,34.75-41.23,15.1-16.17,25.85-25.87,32.33-29.12,3.22-1.61,6.49-3.23,9.71-4.85,1.08,2.97,2.13,5.93,3.22,8.9h0ZM711.12,899.23h-2.46v4.84c0,3.24.81,5.93,2.46,8.09,1.61,2.16,3.46,3.51,5.63,4.04,1.09.28,2.14.54,3.22.81.29-1.61.57-3.23.81-4.85.56-3.23-.52-6.2-3.22-8.89-2.7-2.7-4.83-4.04-6.44-4.04ZM284.17,862.84c1.65,7.01,4.34,13.48,8.09,19.41,3.78,5.93,5.68,12.39,5.68,19.4s-5.4,16.17-16.19,27.49c-10.75,11.33-22.63,25.6-35.55,42.86-6.48,8.61-12.97,17.25-19.41,25.86-2.41-5.65-4.87-11.32-7.29-16.98-4.87-11.31-12.4-25.05-22.62-41.23-10.27-16.17-12.41-27.22-6.49-33.14,5.92-5.94,13.49-12.14,22.63-18.61,9.18-6.46,22.95-14,41.23-22.63,9.18-4.31,18.36-8.62,27.5-12.94.81,3.51,1.65,7.01,2.42,10.51ZM356.16,734.29c-1.61.53-3.26,1.08-4.88,1.61-3.22,1.08-6.44,4.85-9.7,11.32-3.22,6.47-5.64,13.75-7.29,21.83-1.57,8.09-3.74,14.02-6.44,17.79s-3.22,7.54-1.61,11.32c1.61,3.77,2.94,5.65,4.03,5.65s2.7-1.88,4.87-5.65c2.13-3.78,5.11-11.86,8.9-24.25,3.74-12.41,7.24-19.95,10.51-22.65,3.22-2.69,4.3-6.2,3.22-10.51-.53-2.15-1.09-4.3-1.61-6.46h0ZM890.57,722.16c-1.61.54-2.7,9.43-3.22,26.68-.53,17.25-2.7,34.23-6.48,50.93-3.75,16.72-9.14,31.54-16.15,44.47-7.01,12.94-16.47,25.61-28.31,38.01-11.83,12.39-18.03,20.74-18.6,25.06-.28,2.16-.52,4.31-.8,6.47h2.41c1.61,0,6.77-4.31,15.38-12.94,8.62-8.62,16.71-18.33,24.24-29.11,7.57-10.77,13.21-20.2,16.99-28.29,3.79-8.1,7.81-22.1,12.12-42.05,4.31-19.94,6.73-37.19,7.29-51.74.52-14.56.28-22.91-.8-25.07-1.09-2.15-2.42-2.96-4.07-2.42ZM400.61,700.33c1.61,8.62,8.09,22.91,19.4,42.84,11.32,19.95,16.71,41.78,16.19,65.5-.56,23.72-7.01,38.54-19.41,44.47-12.4,5.93-26.69,10.52-42.84,13.75-16.18,3.23-29.39,2.96-39.66-.81-10.22-3.78-16.42-7.28-18.56-10.52-2.17-3.23-5.11-13.21-8.9-29.91-3.78-16.71-5.11-30.19-4.02-40.43,1.04-10.24,4.55-22.91,10.47-38,5.95-15.09,12.16-26.15,18.6-33.14,6.48-7.01,13.77-12.68,21.86-16.98,8.05-4.32,17.51-7.01,28.26-8.09,10.8-1.08,17,2.69,18.61,11.32h0ZM501.67,676.88c19.4,3.77,32.37,7.01,38.81,9.7,6.48,2.7,12.12,6.47,16.99,11.33,2.42,2.42,4.87,4.84,7.29,7.27-5.11,3.5-10.27,7.01-15.38,10.51-10.23,7.01-27.5,14.83-51.74,23.44-12.12,4.32-38.01-12.39-54.15-30.72-16.19-18.32-21.87-33.15-16.99-34.76,4.83-1.62,13.73-2.43,26.65-2.43s29.11,1.88,48.52,5.66ZM633.49,656.67c3.74,11.85-1.09,20.48-14.58,25.86-13.48,5.4-23.43,1.36-29.91-12.12-3.22-6.73-6.48-13.48-9.71-20.22,8.1-1.87,16.19-3.76,24.28-5.65,16.15-3.78,26.13.27,29.92,12.13ZM729.68,618.66c2.17,7.01,3.26,12.94,3.26,17.8s-8.09,9.43-24.28,13.73c-16.15,4.32-26.13.55-29.92-11.31-1.89-5.93-3.74-11.87-5.63-17.78,8.9-2.17,17.79-4.32,26.65-6.48,17.8-4.31,27.78-2.97,29.92,4.04ZM377.17,613.81c3.22,8.08-1.89,15.09-15.38,21.02-13.49,5.93-21.82,5.67-25.04-.81-3.26-6.46-.52-12.66,8.09-18.59,8.62-5.93,15.34-9.71,20.21-11.32,4.84-1.62,8.9,1.61,12.12,9.7ZM504.93,600.07h-2.46c-1.61,0-2.94.81-4.02,2.42-1.09,1.62-2.7,5.94-4.88,12.94-2.13,7.01-2.94,12.39-2.41,16.17.28,1.89.56,3.78.8,5.67,1.09-.55,2.18-1.08,3.26-1.63,2.14-1.07,4.31-7.27,6.45-18.59,1.08-5.66,2.17-11.33,3.26-16.98h0ZM675.52,653.44c8.9,25.33,17.8,50.66,26.7,76-5.68,1.08-11.32,2.15-16.99,3.23-11.32,2.15-17.8,1.89-19.41-.81s-6.73-20.22-15.38-52.56c-8.62-32.34-15.91-55.24-21.82-68.72-5.92-13.47-7.53-21.56-4.84-24.26,2.7-2.68,7.53-4.85,14.54-6.46,7.01-1.62,19.41,22.9,37.2,73.58ZM627.01,559.65c-11.32,3.23-18.08,5.93-20.22,8.08-2.17,2.16,0,13.2,6.49,33.15,3.22,9.96,6.44,19.94,9.66,29.91-8.34,2.16-16.67,4.31-25.04,6.48-16.71,4.3-26.42,7.54-29.11,9.69-2.7,2.16-4.31,4.31-4.84,6.48-.56,2.15,3.23,10.77,11.32,25.86,8.09,15.1,13.73,22.65,16.95,22.65s12.4-3.24,27.5-9.71c7.57-3.23,15.1-6.46,22.67-9.71,2.13,8.64,4.3,17.25,6.44,25.88,4.31,17.25,8.37,28.57,12.12,33.97,3.78,5.38,12.16,7.27,25.08,5.65,12.93-1.61,20.5-3.23,22.63-4.86,2.17-1.61,3.22-4.3,3.22-8.08s-3.5-15.89-10.51-36.38c-3.5-10.25-7-20.48-10.47-30.72,8.06-2.16,16.15-4.31,24.24-6.47,16.19-4.32,26.13-7.81,29.92-10.52,3.78-2.68,5.63-7.82,5.63-15.36s-.8-14.82-2.41-21.83c-1.61-7.01-2.98-11.85-4.03-14.55-1.09-2.7-3.78-4.31-8.09-4.85-4.31-.54-16.43,2.7-36.4,9.7-9.94,3.5-19.93,7.01-29.92,10.51-2.13-8.08-4.3-16.17-6.44-24.26-4.31-16.17-8.65-26.14-12.96-29.9-4.31-3.78-12.12-4.05-23.43-.81h0ZM463.7,559.65c2.94,4.85,5.92,9.69,8.86,14.54-7.81,3.78-15.63,7.56-23.44,11.32-7.81,3.78-15.62,7.55-23.43,11.33-2.17-5.12-4.31-10.25-6.48-15.37-4.31-10.24.52-18.86,14.57-25.87,14.01-7.01,23.96-5.66,29.92,4.05h0ZM407.09,570.96c10.23,19.4,15.34,30.72,15.34,33.97s2.17,8.88,6.48,16.96c4.31,8.09,6.48,12.94,6.48,14.57s-4.06,4.3-12.12,8.08c-8.09,3.78-12.96,5.65-14.57,5.65s-4.59-3.23-8.9-9.69c-4.31-6.48-10.23-19.4-17.79-38.82-7.53-19.4-12.93-31.79-16.15-37.18-3.26-5.4-3.5-9.44-.81-12.13,2.66-2.7,7.82-5.12,15.34-7.29,7.57-2.15,16.47,6.48,26.7,25.88ZM910.78,473.94c-14.01,1.08-25.33,3.77-33.94,8.08-8.62,4.31-15.38,9.17-20.21,14.55-4.83,5.4-7.01,10.52-6.49,15.37.57,4.85,5.16,13.47,13.77,25.87,8.62,12.39,14.02,23.72,16.15,33.96,2.17,10.24,5.15,19.14,8.9,26.68,3.78,7.55,5.39,14.02,4.87,19.4-.56,5.4-2.98,14.83-7.29,28.3-4.31,13.48-6.48,23.46-6.48,29.92s.56,10.24,1.61,11.32c1.09,1.07,2.7,1.07,4.87,0,2.18-1.08,4.03-3.23,5.68-6.47,1.61-3.23,5.11-15.35,10.51-36.38,5.35-21.02,13.45-38,24.24-50.94,10.79-12.93,18.88-25.87,24.23-38.81,5.4-12.94,8.66-25.33,9.75-37.19,1.05-11.85,1.05-19.41,0-22.64-1.09-3.23-4.07-7.01-8.9-11.31-4.87-4.32-9.46-7.29-13.77-8.9-4.31-1.62-13.45-1.89-27.5-.81ZM389.29,456.15c-.28,2.16-.52,4.32-.8,6.47,1.08-.54,2.17-1.07,3.22-1.62,1.09-.53,2.17-1.08,3.26-1.61.24.8.52,1.61.8,2.42.53,1.62-2.17,4.58-8.09,8.9-2.98,2.15-5.92,4.31-8.9,6.46v-4.04c0-2.69,1.9-7.28,5.68-13.74,1.85-3.24,3.75-6.48,5.64-9.71-.28,2.16-.53,4.31-.81,6.47h0ZM647.22,427.05c19.4,2.15,37.44,5.65,54.15,10.5,16.71,4.86,35.07,11.59,55,20.22,19.93,8.62,30.44,13.75,31.53,15.36,1.08,1.62,4.59,3.77,10.51,6.47,5.95,2.69,9.98,5.66,12.12,8.89,2.17,3.24,4.58,4.85,7.28,4.85s5.4-1.34,8.1-4.04c2.69-2.69,4.3-5.93,4.83-9.7.56-3.77,2.69-7.55,6.48-11.33,3.78-3.76,9.42-7.8,16.99-12.12,7.53-4.31,14.01-7.28,19.41-8.89,5.39-1.62,14.01-2.17,25.85-1.62,11.87.54,24.8,3.5,38.81,8.9,14.01,5.38,24,10.77,29.92,16.17,5.95,5.38,11.31,12.12,16.18,20.21,4.83,8.09,8.62,17.52,11.32,28.3,2.69,10.78,3.78,25.6,3.22,44.47-.53,18.87-1.9,33.15-4.03,42.85-2.17,9.7-4.87,18.06-8.09,25.06-3.22,7.01-9.18,15.1-17.8,24.26s-17.8,16.43-27.5,21.83c-9.66,5.39-15.06,8.09-16.14,8.09s-2.42-2.43-4.07-7.29c-.77-2.42-1.61-4.84-2.42-7.27-.8.54-1.61,1.08-2.41,1.62-1.61,1.08-2.42,4.31-2.42,9.69s-.8,9.45-2.41,12.14c-1.66,2.69-.29,10.78,4.02,24.25,4.31,13.48,6.2,28.3,5.64,44.47-.53,16.17-2.66,32.07-6.44,47.7-3.79,15.64-9.42,31-16.99,46.09-7.53,15.09-20.5,32.61-38.82,52.55-18.32,19.95-28.83,29.92-31.52,29.92h-4.03v3.24c0,2.15-4.07,6.19-12.12,12.12-8.09,5.94-17.8,11.59-29.11,16.99-11.35,5.39-26.17,10.77-44.49,16.17-18.32,5.38-32.61,8.62-42.84,9.69-10.27,1.08-27.78,1.08-52.54,0-24.81-1.07-58.51-7.27-101.1-18.59-42.56-11.31-70.34-18.06-83.27-20.21-12.92-2.16-28.3-7.01-46.1-14.56-17.76-7.54-32.85-16.44-45.26-26.68-12.4-10.24-22.38-19.95-29.91-29.11-3.79-4.57-7.57-9.16-11.32-13.74.81-.28,1.62-.54,2.42-.81,1.61-.54,7.53,1.08,17.8,4.85,10.22,3.77,17.79,5.39,22.63,4.85,4.83-.53,14.81-2.96,29.91-7.28,15.1-4.31,26.41-8.35,33.98-12.13,7.53-3.76,16.43,1.08,26.66,14.56,10.22,13.48,18.84,23.72,25.89,30.72,7,7.01,12.92,11.87,17.75,14.56,4.87,2.69,12.97,5.39,24.28,8.08,11.31,2.7,35.59,2.96,72.76.81,18.6-1.07,37.2-2.15,55.8-3.23.28,3.77.52,7.54.81,11.32.52,7.55,1.89,12.67,4.02,15.36,2.18,2.7,4.07,3.51,5.68,2.43s1.61-7.55,0-19.41-4.03-20.75-7.29-26.68c-3.22-5.93-7.81-12.13-13.73-18.6-2.98-3.22-5.96-6.47-8.9-9.7-.8.81-1.61,1.62-2.41,2.43-1.65,1.61,0,5.66,4.83,12.13,4.87,6.46,7.29,11.05,7.29,13.74s-10.79,4.85-32.33,6.47c-21.58,1.61-42.08,2.16-61.49,1.61-19.36-.53-33.41-2.42-42.03-5.65-8.62-3.24-21.82-15.64-39.62-37.2-17.76-21.55-26.65-39.89-26.65-54.98s1.61-27.76,4.83-37.99c3.22-10.25,6.2-15.37,8.9-15.37h4.02v-2.43c0-1.61,1.09-2.96,3.22-4.04,2.18-1.08,13.77-5.12,34.79-12.13,21.02-7.01,36.12-12.93,45.26-17.78,9.18-4.85,15.38-9.16,18.64-12.94,3.22-3.77,5.63-5.66,7.25-5.66s10.26,4.85,25.88,14.56c15.63,9.69,30.73,21.29,45.3,34.76,14.54,13.47,25.57,25.88,33.14,37.2,7.53,11.31,13.45,25.33,17.79,42.04,4.31,16.71,7.53,26.14,9.71,28.29,2.13,2.17,4.55,3.51,7.25,4.04,1.36.28,2.69.55,4.06.81-1.89-8.35-3.78-16.7-5.68-25.05-3.78-16.72-9.98-32.08-18.6-46.09-8.61-14.02-16.99-25.34-25.04-33.96-8.09-8.62-18.08-17.79-29.92-27.49-11.87-9.7-25.6-18.6-41.23-26.68-15.66-8.09-23.75-13.75-24.27-16.98-.53-3.23-2.42-6.74-5.64-10.51-3.26-3.77-7.85-7.29-13.77-10.51-5.92-3.24-14.25-6.47-25.04-9.7-10.8-3.25-28.07-5.93-51.78-8.09-23.72-2.16-39.34-2.43-46.87-.81-7.57,1.61-12.68,3.77-15.38,6.47s-8.62,4.04-17.8,4.04-17.51,1.08-25.04,3.23c-7.53,2.15-14.01,4.59-19.41,7.28-5.39,2.69-10.51,6.74-15.34,12.12-2.45,2.7-4.87,5.4-7.28,8.1-.29-12.67-.57-25.35-.81-38.01-.28-12.67-.56-25.33-.8-38,2.93,4.85,5.91,9.7,8.89,14.56,5.92,9.7,16.43,11.32,31.49,4.85,15.14-6.47,24.28-6.74,27.5-.81,3.26,5.93,7.29,10.51,12.16,13.74,4.83,3.24,12.64,2.7,23.43-1.61,10.79-4.32,16.43-9.44,16.95-15.36.57-5.93-1.33-13.22-5.63-21.84-2.14-4.3-4.31-8.62-6.45-12.93,5.92-2.69,11.84-5.39,17.76-8.09,11.84-5.38,19.97-9.7,24.28-12.94,4.31-3.23,5.39-8.08,3.22-14.55-2.17-6.46-6.72-14.28-13.73-23.44-7.01-9.16-18.08-9.98-33.18-2.44-7.53,3.78-15.1,7.56-22.62,11.33-1.9-4.32-3.79-8.62-5.68-12.94-3.75-8.62-6.44-13.75-8.05-15.36-1.66-1.62-3.79-2.43-6.49-2.43s-8.61,1.89-17.79,5.67c-9.14,3.77-14.82,7.27-16.99,10.51-2.14,3.22-2.94,7.81-2.42,13.75.52,5.92,2.7,13.73,6.48,23.44,3.79,9.7-.8,18.32-13.73,25.88-6.48,3.76-12.96,7.54-19.4,11.31.24-4.31.52-8.63.8-12.94.52-8.62,4.03-20.21,10.51-34.76,6.44-14.56,12.4-25.88,17.76-33.96,5.39-8.09,12.15-16.44,20.21-25.07,8.09-8.61,18.6-17.51,31.56-26.68,12.93-9.16,28.03-17.52,45.26-25.06,17.27-7.54,28.3-11.58,33.18-12.13,4.83-.55,8.05-1.62,9.7-3.23,1.61-1.62,8.05-4.04,19.37-7.28,11.35-3.24,27.5-5.93,48.51-8.08,10.51-1.08,21.06-2.16,31.53-3.24-5.64,5.66-11.31,11.32-16.95,16.98-11.32,11.33-20.5,22.37-27.5,33.15-7.01,10.78-14.58,28.03-22.63,51.74-8.09,23.72-12.68,35.85-13.77,36.39-1.05.54-1.61,2.43-1.61,5.66v4.85h2.42c1.65,0,6.48-11.05,14.57-33.15,8.09-22.1,15.38-38.53,21.82-49.32,6.49-10.78,15.67-22.37,27.5-34.76,11.84-12.41,19.93-20.22,24.24-23.46,4.31-3.23,8.38-5.38,12.16-6.46,3.75-1.08,15.34-.54,34.75,1.62h0ZM435.39,414.92c1.09.53,1.33,1.89.81,4.04-.28,1.08-.56,2.16-.81,3.23-.8-1.07-1.61-2.15-2.45-3.23-.77-1.08-1.61-2.15-2.42-3.24-1.33,2.16-2.7,4.32-4.02,6.47-1.37,2.16-2.7,4.31-4.07,6.47v-11.32h-2.42c-1.61,0-3.74,2.7-6.48,8.09-1.33,2.69-2.66,5.38-4.03,8.08v-4.85c0-3.23-.8-5.12-2.41-5.65-1.61-.55-2.98.53-4.03,3.23-1.09,2.7-3.26,4.57-6.48,5.65-3.22,1.08-6.48,4.32-9.7,9.7-1.61,2.71-3.27,5.39-4.88,8.09.29-1.62.57-3.23.85-4.85.52-3.24,2.7-7.54,6.44-12.94,3.79-5.39,8.62-9.43,14.58-12.13,5.91-2.69,12.4-4.31,19.4-4.84,7.01-.54,11.04-.54,12.12,0h0ZM476.62,372.06c7.01,2.15,14.54,5.67,22.63,10.52,8.09,4.85,14.58,9.69,19.41,14.55,4.87,4.85,8.33,9.43,10.51,13.75,1.08,2.15,2.17,4.31,3.26,6.46-7.57,1.62-15.1,3.23-22.67,4.85-15.1,3.24-24.52,2.7-28.26-1.62-3.83-4.3-10.55-8.89-20.26-13.73-9.7-4.86-19.65-7.56-29.91-8.09-10.23-.55-18.85.27-25.85,2.42-7.01,2.15-14.58,7.55-22.63,16.17-8.09,8.63-12.68,19.68-13.77,33.15-1.05,13.48-1.37,22.91-.8,28.3.52,5.39,1.61,9.43,3.22,12.13s-1.09,7.82-8.06,15.36c-3.5,3.77-7.04,7.54-10.55,11.32-.24-1.89-.52-3.78-.76-5.66-.56-3.77-1.65-5.93-3.26-6.47-1.61-.53-3.22-3.23-4.83-8.09-1.65-4.85-2.7-11.58-3.26-20.21-.53-8.62,0-16.98,1.61-25.05,1.65-8.1,5.39-17.53,11.35-28.31,5.92-10.78,11.6-18.86,16.95-24.25,5.4-5.4,13.49-11.05,24.28-16.98,10.75-5.93,19.41-9.71,25.85-11.33,6.48-1.61,15.66-2.42,27.5-2.42s21.3,1.08,28.3,3.23h0ZM149.97,1245.28c7,14.02,11.31,27.49,12.92,40.43,1.65,12.94,4.07,23.99,7.29,33.15,3.26,9.16,4.87,19.67,4.87,31.53s-2.17,25.86-6.48,42.05c-4.31,16.17-10.51,46.89-18.6,92.16-8.09,45.29-14.29,90.29-18.6,135.03-4.31,44.74-9.99,67.37-16.95,67.93-7.05.53-17.28,2.97-30.76,7.26-13.45,4.32-25.33,10.25-35.56,17.79-10.22,7.54-16.99,14.02-20.21,19.41-3.26,5.39-5.92,12.65-8.09,21.83-2.14,9.16-2.98,17.25-2.42,24.24.53,7.02,2.7,15.1,6.44,24.27,3.79,9.16,7.29,16.17,10.51,21.02,3.26,4.85,10.27,12.39,21.06,22.63,10.75,10.24,22.06,18.87,33.94,25.87,11.84,7.02,24.52,13.22,38.01,18.6,13.45,5.39,32.61,10.52,57.42,15.37,24.76,4.84,47.39,7.26,67.88,7.26s37.2-1.08,50.17-3.23c12.92-2.15,21.82,1.89,26.65,12.13,4.83,10.24,9.42,17.53,13.77,21.82,4.31,4.32,9.14,7.82,14.54,10.52,5.39,2.7,19.12,5.93,41.23,9.71,22.1,3.77,42.84,5.66,62.24,5.66s43.93-1.09,73.6-3.23c29.64-2.16,58.47-6.47,86.49-12.95,28.02-6.45,48.27-13.47,60.68-21.02,12.36-7.53,22.06-14.82,29.11-21.82,6.96-7.01,12.64-14.28,16.95-21.82,4.31-7.55,8.61-20.49,12.92-38.82,4.31-18.33,7.57-42.58,9.71-72.77,2.17-30.19,2.97-74.66,2.45-133.41-.56-58.75.24-92.71,2.42-101.88,2.17-9.15,2.69-15.63,1.61-19.4-1.09-3.76-1.61-23.72-1.61-59.83s-.57-60.09-1.61-71.95c-.57-5.93-1.09-11.86-1.65-17.79,4.59,8.89,9.18,17.79,13.77,26.69,9.18,17.78,17.23,31.8,24.23,42.05,7.01,10.23,17.52,22.09,31.57,35.58,14.01,13.46,26.65,23.44,37.97,29.91,11.35,6.47,23.71,11.6,37.2,15.36,13.49,3.78,25.09,5.4,34.79,4.85,9.66-.53,17.51-2.15,23.43-4.85,5.92-2.69,12.4-7.55,19.41-14.55,7.01-7.01,22.35-37.74,26.69-56.6,4.31-18.87,6.45-35.31,6.45-49.32s-2.14-35.57-6.45-64.68c-4.34-29.11-9.98-55.52-16.99-79.23-7-23.72-12.12-39.08-15.38-46.09-3.22-7.01-4.31-12.13-3.22-15.36,1.09-3.23,2.7-5.66,4.83-7.27,2.18-1.62,3.26-4.59,3.26-8.9s-3.26-15.63-9.7-33.96c-6.48-18.32-14.01-36.1-22.67-53.37-8.61-17.25-19.12-35.57-31.52-54.98-12.4-19.4-25.85-38.27-40.43-56.6-14.53-18.32-19.12-29.9-13.73-34.76,5.4-4.85,11.84-12.67,19.41-23.45,7.53-10.78,15.62-24.53,24.24-41.23,8.61-16.72,15.9-33.96,21.82-51.75,5.96-17.79,9.99-33.69,12.16-47.71,2.13-14,2.94-25.87,2.42-35.57-.53-9.7.28-19.14,2.41-28.3,2.18-9.16,4.87-16.71,8.09-22.64,3.23-5.93,9.18-12.12,17.8-18.59,8.62-6.47,15.1-12.12,19.41-16.98,4.31-4.85,9.7-13.21,16.14-25.07,6.49-11.86,11.08-22.63,13.77-32.34,2.7-9.7,4.31-21.02,4.83-33.96.57-12.93,0-24.52-1.61-34.76-1.61-10.24-5.39-21.84-11.31-34.76-5.92-12.95-11.6-22.38-16.99-28.3-5.4-5.93-12.64-11.86-21.82-17.79-9.18-5.93-18.32-10.25-27.5-12.94-9.14-2.69-23.15-4.31-42.04-4.86-18.84-.53-31.81.28-38.81,2.44-7.01,2.15-15.1,7.27-24.24,15.36-9.18,8.08-14.57,12.12-16.18,12.12s-12.69-4.85-33.14-14.55c-20.5-9.71-41.79-18.06-63.9-25.06-22.1-7.01-44.45-11.86-67.08-14.56-22.67-2.69-45.58-3.5-68.73-2.42-23.19,1.07-40.46-4.31-51.77-16.17-11.32-11.87-19.65-19.67-25.05-23.45-5.39-3.78-11.88-7.55-19.41-11.32-7.52-3.77-15.9-6.74-25.04-8.9-9.18-2.15-20.21-2.69-33.18-1.61-12.92,1.07-24.52,3.5-34.74,7.28-10.23,3.76-19.69,8.89-28.31,15.36-8.61,6.47-15.9,14.28-21.82,23.45-5.96,9.16-10.27,18.59-12.92,28.29-2.7,9.7-4.35,19.14-4.88,28.3-.52,9.17.29,19.41,2.42,30.72,2.17,11.32,4.59,20.48,7.29,27.49,2.69,7.01.52,17.79-6.49,32.34-7,14.56-12.36,30.73-16.18,48.51-3.75,17.8-6.16,38.01-7.25,60.64-1.09,22.65-.8,40.43.81,53.37,1.61,12.94-.29,24.26-5.64,33.96-5.44,9.7-9.99,20.48-13.77,32.34-3.74,11.85-6.2,25.06-7.29,39.62-1.04,14.55-11.84,27.49-32.33,38.8-20.49,11.32-35.55,20.76-45.26,28.3-9.7,7.56-17.55,14.57-23.47,21.03s-9.7,9.7-11.31,9.7h-2.42v4.85h-4.87c.8,2.7,1.65,5.39,2.46,8.08,1.61,5.4,6.96,15.91,16.14,31.55,9.18,15.62,14.82,26.4,16.99,32.33,2.14,5.92,3.5,12.13,4.03,18.6.56,6.46-3.22,18.59-11.32,36.38-8.09,17.79-15.34,36.65-21.82,56.6-6.48,19.95-10.79,34.76-12.92,44.47-2.18,9.71-3.79,22.1-4.87,37.2-.53,7.54-1.05,15.09-1.62,22.63l.81,45.28"/>
    <path class="cls-1" d="M551.85,417.53c-4.12-8.99-7.86-17.9-11.56-26.95-3.67-9.02-7.26-18.1-10.65-27.22-6.84-18.26-13.17-36.71-18.9-55.39-5.68-18.68-10.84-37.57-15.11-56.73-4.24-19.14-7.67-38.56-9.77-58.28-2.06-19.7-2.75-39.74-.84-59.97,1.03-10.1,2.71-20.25,5.42-30.3.72-2.5,1.37-5.02,2.25-7.5l1.26-3.71,1.34-3.56,1.33-3.57,1.49-3.53,1.45-3.52,1.6-3.5c4.28-9.3,9.24-18.4,15.23-27.04,3.06-4.28,6.22-8.52,9.77-12.49,1.72-2.04,3.67-3.92,5.54-5.87.95-.95,1.95-1.85,2.94-2.79l1.49-1.39c.49-.45,1.03-.87,1.52-1.32,4.13-3.58,8.59-6.79,13.32-9.71,4.74-2.92,9.77-5.38,15.04-7.4,10.5-4.08,21.95-6.02,33.28-5.77,11.34.19,22.45,2.71,32.79,6.66,5.19,1.99,10.15,4.42,14.92,7.12,2.41,1.34,4.66,2.83,6.99,4.3,2.21,1.55,4.5,3.09,6.64,4.77,17.25,13.24,30.84,30.51,40.42,49.67,9.54,19.17,15.11,40.33,16.22,61.75.19,2.67.19,5.36.27,8.03.03,1.35-.04,2.68-.04,4.01l-.04,2.02c0,.67-.04,1.35-.08,1.94l-.76,14.8c-.42,9.89-1.41,19.67-2.17,29.5-.35,4.93-.92,9.8-1.45,14.7l-1.57,14.67-1.87,14.61c-.65,4.86-1.22,9.75-1.98,14.59-1.45,9.71-2.83,19.44-4.55,29.09-.8,4.83-1.56,9.67-2.44,14.5l-2.63,14.46c-3.59,19.25-7.48,38.46-11.84,57.57-2.13,9.57-4.35,19.11-6.67,28.64-1.15,4.77-2.37,9.53-3.55,14.3-1.26,4.8-2.49,9.47-3.86,14.46l-38.62-11.42c1.33-4.32,2.67-8.98,4-13.51,1.3-4.59,2.64-9.15,3.9-13.76,2.55-9.21,5-18.44,7.36-27.72,4.81-18.51,9.2-37.15,13.28-55.83l3.02-14.03c.99-4.67,1.87-9.37,2.82-14.06,1.95-9.36,3.55-18.77,5.27-28.17.88-4.69,1.6-9.41,2.37-14.11l2.25-14.14,1.95-14.15c.64-4.72,1.37-9.43,1.87-14.16,1.03-9.44,2.29-18.9,2.94-28.34l1.18-14.18c.07-.61.07-1.16.11-1.69l.08-1.61c.04-1.08.15-2.16.15-3.24,0-2.16.08-4.32,0-6.49-.38-17.28-4.35-34.48-11.56-50.19-7.22-15.71-17.79-29.95-30.96-40.69-1.64-1.36-3.36-2.6-5.04-3.87-1.75-1.18-3.47-2.39-5.3-3.47-3.55-2.17-7.25-4.13-11.07-5.74-7.63-3.18-15.65-5.24-23.66-5.61-8.06-.42-16.07.64-23.7,3.34-3.82,1.33-7.6,2.99-11.15,5.07-3.59,2.07-7.1,4.36-10.34,7.07-.42.33-.84.65-1.26.99l-1.19,1.06c-.8.71-1.64,1.38-2.4,2.12-1.53,1.52-3.13,2.97-4.58,4.59-3.02,3.13-5.73,6.59-8.44,10.09-5.26,7.13-9.88,14.93-13.93,23.1l-1.52,3.08-1.42,3.13-1.41,3.14-1.3,3.19-1.33,3.2-1.19,3.12c-.8,2.06-1.41,4.23-2.09,6.34-2.64,8.57-4.39,17.54-5.62,26.67-2.29,18.28-2.29,37.15-.87,56,1.37,18.85,4.12,37.72,7.67,56.49,3.59,18.76,8.05,37.41,13.09,55.93,5.08,18.52,10.76,36.9,16.91,55.1,3.09,9.11,6.33,18.18,9.69,27.19,3.36,8.99,6.83,18.03,10.5,26.78l-10.65,4.74"/>
    <path class="cls-1" d="M578.29,419.43c-2.88-6.98-5.52-13.87-8.13-20.86-2.65-6.97-5.14-13.98-7.56-21.01-4.84-14.08-9.37-28.26-13.57-42.55-8.43-28.59-15.5-57.67-20.03-87.4-2.31-14.86-3.86-29.9-4.31-45.13-.42-15.21.23-30.66,3.4-46.12,1.59-7.72,3.86-15.46,7.18-22.93,3.25-7.49,7.83-14.69,13.61-21,.72-.83,1.4-1.49,2.08-2.19s1.36-1.4,2.08-2.08c1.4-1.37,2.79-2.74,4.31-4.06,2.91-2.65,6.01-5.22,9.3-7.6,6.53-4.77,13.83-9.06,22.33-11.63,4.24-1.26,8.81-2.05,13.53-2.07,4.73-.06,9.57.8,14.1,2.47,4.54,1.63,8.66,4.18,12.21,7.11,3.59,2.94,6.58,6.3,9.15,9.83,5.06,7.07,8.5,14.68,11.07,22.32,2.57,7.66,4.24,15.4,5.45,23.13,2.34,15.45,2.72,30.86,2.04,46.09-.65,15.24-2.54,30.3-5.11,45.19-5.06,29.04-9.82,58.09-14.21,87.23-4.42,29.12-8.54,58.38-12.36,87.52l-11.64-.93c.64-14.93,1.66-29.69,2.95-44.5.6-7.39,1.32-14.78,2.08-22.16.72-7.38,1.47-14.76,2.34-22.13,3.4-29.48,7.52-58.9,12.4-88.17,2.38-14.26,3.97-28.61,4.65-42.92.68-14.29.34-28.58-1.74-42.39-1.06-6.88-2.53-13.64-4.65-20.01-2.08-6.37-4.88-12.36-8.43-17.32s-7.9-8.65-12.7-10.46c-4.76-1.85-10.24-1.8-15.91-.15-5.71,1.63-11.45,4.82-16.86,8.7-2.72,1.93-5.33,4.09-7.9,6.37-1.28,1.12-2.53,2.32-3.78,3.51-.64.58-1.24,1.23-1.85,1.83-.6.61-1.28,1.24-1.78,1.8-4.23,4.57-7.78,9.98-10.47,16.01-2.72,6.02-4.76,12.52-6.27,19.25-2.95,13.49-3.82,27.79-3.63,42.1.27,14.35,1.51,28.79,3.44,43.19,1.93,14.41,4.5,28.79,7.52,43.09,3.03,14.32,6.39,28.58,10.17,42.76,3.78,14.17,7.9,28.27,12.28,42.29,4.46,13.96,9.04,28.02,14.06,41.67l-10.84,4.31"/>
    <path class="cls-1" d="M729.18,443.27c-.04-9.81.15-19.41.51-29.1.32-9.66.84-19.31,1.44-28.97,1.28-19.31,3.12-38.58,5.59-57.81,2.48-19.23,5.64-38.41,9.63-57.47,4.03-19.06,8.99-38.01,15.3-56.65,6.31-18.64,14.02-37,24.24-54.41,5.12-8.7,10.91-17.1,17.54-25.03.84-.99,1.72-1.95,2.56-2.92.87-.97,1.75-1.95,2.59-2.86,1.72-1.83,3.44-3.65,5.23-5.44,3.56-3.58,7.23-7.07,11.07-10.42,7.67-6.69,15.94-12.91,24.96-18.21,9.03-5.31,18.82-9.72,29.32-12.59,10.47-2.87,21.65-4.11,32.84-3.15,11.18.92,22.24,4.12,32.23,9.19,10.03,5.06,18.97,11.93,26.56,19.83,7.59,7.92,13.9,16.89,18.98,26.38,10.14,19.02,15.41,40.16,16.33,61.38.96,21.25-2.55,42.65-10.06,62.56-.96,2.48-1.92,4.96-3,7.39-.52,1.23-1.08,2.43-1.64,3.63l-1.59,3.39c-2.12,4.41-4.2,8.86-6.4,13.23l-3.27,6.58-3.36,6.53c-2.19,4.37-4.51,8.66-6.83,12.99-9.18,17.24-18.93,34.14-28.96,50.82-10.06,16.67-20.49,33.1-31.23,49.31-10.71,16.23-21.73,32.24-33.03,48.06-5.68,7.9-11.39,15.76-17.18,23.58-2.92,3.91-5.87,7.8-8.83,11.69l-4.43,5.82-4.63,5.92-31.16-25.56,4.43-5.32,4.48-5.47c2.95-3.68,5.91-7.36,8.86-11.08,5.88-7.42,11.71-14.91,17.46-22.46,11.5-15.1,22.77-30.4,33.71-45.9,10.95-15.5,21.61-31.2,31.88-47.12,10.26-15.91,20.25-32.02,29.64-48.4,2.31-4.1,4.71-8.18,6.95-12.32l3.43-6.19,3.32-6.23c2.27-4.14,4.39-8.33,6.55-12.51l1.55-3.08c.48-.96.96-1.92,1.4-2.9.92-1.93,1.8-3.91,2.64-5.88,6.51-15.85,9.9-33.03,9.67-50.2-.2-17.14-4-34.32-11.47-49.48-7.47-15.11-18.73-28.19-32.83-35.86-7.03-3.84-14.7-6.32-22.65-7.23-7.95-.94-16.18-.34-24.29,1.62-8.1,1.95-16.09,5.19-23.76,9.4-7.67,4.19-15.02,9.33-22.01,15.03-3.48,2.87-6.87,5.88-10.19,9.02-1.63,1.57-3.27,3.16-4.91,4.8-.8.81-1.56,1.62-2.32,2.42-.76.81-1.51,1.6-2.27,2.43-5.92,6.62-11.31,13.89-16.18,21.6-9.71,15.47-17.58,32.44-24.13,49.98-6.55,17.55-11.9,35.7-16.41,54.09-4.48,18.41-8.15,37.07-11.19,55.87-3.03,18.79-5.43,37.71-7.27,56.7-.92,9.49-1.72,19.01-2.35,28.52-.6,9.51-1.12,19.11-1.4,28.5l-11.67-.04"/>
    <path class="cls-1" d="M756.8,449.5c.12-7.36.4-14.54.75-21.79.32-7.23.83-14.46,1.39-21.68,1.14-14.43,2.61-28.84,4.42-43.23,3.72-28.77,8.9-57.44,16.84-85.65,3.99-14.1,8.69-28.08,14.66-41.71,5.97-13.6,13.08-26.97,22.65-39.13,4.78-6.09,10.23-11.81,16.48-16.8,3.16-2.5,6.52-4.8,10.08-6.82,3.48-2.06,7.43-3.76,10.83-5.13,7.11-2.83,14.46-5.23,22.33-6.72,7.82-1.44,16.16-2.06,24.86-.43,4.3.83,8.69,2.24,12.76,4.47,4.11,2.21,7.87,5.18,10.99,8.67,3.08,3.5,5.45,7.46,7.23,11.51,1.78,4.06,2.97,8.2,3.76,12.31,1.54,8.25,1.5,16.29.83,24.08-.72,7.79-2.22,15.33-4.07,22.69-3.84,14.69-9.37,28.62-15.7,42.02-6.36,13.41-13.71,26.2-21.57,38.59l-23.24,36.25c-7.67,12.12-15.38,24.19-22.97,36.36-15.21,24.28-30.31,48.71-45.17,73.13l-10.28-5.56c12.81-25.99,26.76-51.17,41.07-76.22l10.91-18.68,5.49-9.31,5.61-9.25,11.27-18.45c3.75-6.13,7.66-12.27,11.46-18.29,7.47-11.9,14.3-24.16,20.31-36.72,6.01-12.54,11.11-25.47,14.58-38.6,1.7-6.56,2.97-13.17,3.6-19.69.59-6.52.59-12.98-.51-18.89-1.07-5.92-3.32-11.16-6.6-14.98-1.7-1.89-3.64-3.44-5.85-4.68s-4.74-2.09-7.47-2.65c-5.49-1.11-11.7-.83-17.98.28-6.33,1.15-12.69,3.14-18.97,5.58-3.28,1.3-5.97,2.41-8.66,3.97-2.73,1.52-5.33,3.27-7.82,5.22-5.02,3.93-9.61,8.59-13.8,13.75-8.38,10.35-15.14,22.43-20.87,35.04-5.73,12.65-10.43,25.91-14.54,39.38-4.11,13.49-7.55,27.25-10.55,41.12-2.97,13.88-5.57,27.87-7.75,41.96-2.21,14.08-4.03,28.23-5.53,42.42-1.46,14.17-2.85,28.48-3.6,42.58l-11.66-.32"/>
    <path class="cls-1" d="M863.69,703.59c-.86,0-1.72-.12-2.55-.32-8.07-2.05-10.81-10.22-11.36-33.61-2.08-89.73-7.17-128.46-114.48-186.71-55.85-30.3-117.42-38.55-159.28-40.12-45.66-1.71-78.47,3.91-78.78,3.96l-3.29-18.68c1.41-.24,34.72-5.99,82.3-4.25,43.98,1.61,108.88,10.28,168.06,42.42,56.36,30.59,87.64,57.32,104.61,89.37,1.56,2.98,3.01,6,4.35,9.06-7.06-25.56-19.13-52.17-39.51-72.82l13.48-13.32c36.49,36.96,48.96,89.73,52.99,127.5,4.43,41.66.2,79.65-6.31,90.96-2.74,4.85-6.74,6.56-10.23,6.56"/>
  </g>
</svg>